<svg xmlns="http://www.w3.org/2000/svg" width="1000" height="1250" viewBox="0 0 1000 1250" version="1.1"><path d="M 456.230 168.550 C 449.781 170.287, 446.963 171.717, 437.716 177.951 C 428.562 184.122, 418.567 188.363, 414.906 187.631 C 410.531 186.756, 393.823 180.057, 390 177.645 C 384.522 174.188, 381.216 173, 377.078 173 C 373.589 173, 373.195 173.277, 372.624 176.130 C 371.965 179.423, 367.227 188.106, 364.236 191.500 C 354.283 202.797, 331.529 212.469, 289 223.483 C 283.225 224.978, 275.125 227.332, 271 228.713 C 260.584 232.201, 251.794 231.658, 244.036 227.047 C 241.031 225.261, 232.931 221.103, 226.036 217.807 C 208.523 209.436, 196.002 200.807, 186.949 190.871 C 178.385 181.472, 168.309 173.473, 163.051 171.897 C 160.454 171.119, 158.294 171.115, 155.460 171.883 C 149.139 173.597, 136.930 181.295, 124.249 191.563 C 115.936 198.293, 111.915 200.944, 110.500 200.626 C 109.400 200.379, 103.100 197.795, 96.500 194.885 C 80.255 187.720, 74.849 187.284, 64.686 192.320 C 55.217 197.013, 47.161 204.365, 41.455 213.520 C 36.178 221.987, 33.993 228.271, 34.017 234.909 C 34.033 239.447, 36.016 243.571, 45.425 258.636 C 49.160 264.615, 51 270.510, 51 276.491 C 51 282.348, 50.686 282.871, 39.923 295 C 36.263 299.125, 30.845 305.875, 27.884 310 L 22.500 317.500 22.500 328.052 L 22.500 338.605 28.103 350.052 C 31.185 356.349, 35.732 363.976, 38.207 367.003 C 45.555 375.988, 47 379.653, 47 389.309 C 47 397.048, 46.716 398.233, 43.333 404.599 C 39.180 412.416, 33.111 426.663, 28.893 438.500 C 26.548 445.082, 26.039 448.148, 26.021 455.800 C 25.997 466.490, 26.078 466.697, 36.200 481.728 C 44.885 494.625, 47.306 501.163, 46.719 510.130 C 46.290 516.670, 43.522 523.134, 37.748 531.083 C 35.912 533.609, 30.135 547.664, 25.291 561.386 C 22.498 569.301, 22.498 578.002, 25.292 593.214 C 26.619 600.444, 27.852 603.559, 32.532 611.511 C 40.244 624.614, 45.031 636.867, 45.717 645.259 C 46.229 651.511, 45.995 652.620, 42.604 660.038 C 38.301 669.452, 36.899 677.383, 36.286 695.773 C 35.733 712.381, 36.791 717.696, 41.938 724.159 C 44.085 726.856, 48.217 733.783, 51.121 739.553 L 56.400 750.044 56.350 759.772 C 56.306 768.210, 55.804 771.024, 52.560 781 C 50.503 787.325, 46.566 797.305, 43.811 803.179 C 39.145 813.125, 38.791 814.428, 38.651 822.179 C 38.469 832.204, 40.170 840.444, 44.085 848.500 C 45.689 851.800, 47.001 855.067, 47 855.761 C 47 856.454, 48.972 860.761, 51.382 865.331 C 55.609 873.344, 55.774 873.994, 56.027 883.570 C 56.424 898.625, 56.123 903.725, 54.750 905.203 C 50.923 909.322, 45.104 916.894, 43.762 919.500 C 39.791 927.212, 37.404 941.899, 37.586 957.500 C 37.677 965.275, 42.225 974.875, 53.750 991.621 C 56.564 995.710, 57 997.179, 57 1002.577 C 57 1008.291, 56.695 1009.173, 53.348 1013.155 C 51.340 1015.545, 48.852 1019.394, 47.820 1021.709 C 46.788 1024.023, 45.517 1026.181, 44.996 1026.503 C 43.590 1027.371, 36.883 1039.668, 35.237 1044.394 C 32.794 1051.406, 31.813 1067.632, 33.491 1073.281 C 35.674 1080.634, 40.390 1088.157, 46.228 1093.603 C 53.767 1100.636, 58 1106.505, 58 1109.927 C 58 1111.900, 56.632 1114.444, 53.750 1117.830 C 51.413 1120.577, 48.386 1125.676, 47.024 1129.162 C 45.663 1132.648, 43.258 1137.598, 41.679 1140.162 C 39.510 1143.688, 38.648 1146.613, 38.144 1152.162 C 36.674 1168.343, 41.046 1182.131, 51.365 1193.862 C 54.739 1197.697, 58.254 1201.925, 59.176 1203.257 C 61.941 1207.254, 76.550 1213.651, 84.803 1214.480 C 91.184 1215.121, 92.473 1214.930, 97.589 1212.588 C 100.718 1211.155, 108.289 1206.632, 114.414 1202.536 C 127.496 1193.787, 134.408 1190.537, 143.130 1189.033 C 146.633 1188.429, 150.694 1187.698, 152.153 1187.409 C 154.512 1186.942, 154.943 1187.306, 156.033 1190.692 C 158.234 1197.524, 163.324 1202.568, 172.717 1207.224 C 180.575 1211.120, 182.131 1211.531, 190.224 1211.851 C 211.312 1212.686, 241.145 1203.792, 252.067 1193.415 C 254.400 1191.199, 254.947 1191.084, 258.067 1192.156 C 259.955 1192.804, 263.300 1194.463, 265.500 1195.842 C 277.317 1203.249, 300.403 1212.208, 316.315 1215.563 C 325.302 1217.458, 350.341 1217.470, 359 1215.584 C 364.406 1214.407, 376.844 1209.918, 385.500 1206.021 C 397.081 1200.806, 405.725 1197.491, 411.823 1195.925 L 419.145 1194.045 425.074 1197.038 C 428.335 1198.684, 433.365 1200.958, 436.252 1202.092 C 439.138 1203.226, 444.373 1205.964, 447.883 1208.177 C 459.642 1215.587, 460.605 1215.738, 496 1215.738 C 531.395 1215.738, 532.358 1215.587, 544.117 1208.177 C 547.627 1205.964, 552.862 1203.226, 555.748 1202.092 C 558.635 1200.958, 563.665 1198.684, 566.926 1197.038 L 572.855 1194.045 580.177 1195.925 C 586.275 1197.491, 594.919 1200.806, 606.500 1206.021 C 615.156 1209.918, 627.594 1214.407, 633 1215.584 C 641.659 1217.470, 666.698 1217.458, 675.685 1215.563 C 691.597 1212.208, 714.683 1203.249, 726.500 1195.842 C 728.700 1194.463, 732.045 1192.804, 733.933 1192.156 C 737.053 1191.084, 737.600 1191.199, 739.933 1193.415 C 750.855 1203.792, 780.688 1212.686, 801.776 1211.851 C 809.869 1211.531, 811.425 1211.120, 819.283 1207.224 C 828.676 1202.568, 833.766 1197.524, 835.967 1190.692 C 837.057 1187.306, 837.488 1186.942, 839.847 1187.409 C 841.306 1187.698, 845.367 1188.429, 848.870 1189.033 C 857.592 1190.537, 864.504 1193.787, 877.586 1202.536 C 883.711 1206.632, 891.282 1211.155, 894.411 1212.588 C 899.540 1214.936, 900.810 1215.122, 907.300 1214.479 C 913.420 1213.872, 916.601 1212.728, 928.500 1206.855 C 940.628 1200.870, 943.314 1199.088, 948.584 1193.537 C 958.786 1182.792, 963.347 1168.573, 961.856 1152.162 C 961.352 1146.613, 960.490 1143.688, 958.321 1140.162 C 956.742 1137.598, 954.337 1132.648, 952.976 1129.162 C 951.614 1125.676, 948.587 1120.577, 946.250 1117.830 C 943.368 1114.444, 942 1111.900, 942 1109.927 C 942 1106.505, 946.233 1100.636, 953.772 1093.603 C 959.610 1088.157, 964.326 1080.634, 966.509 1073.281 C 968.187 1067.632, 967.206 1051.406, 964.763 1044.394 C 963.117 1039.668, 956.410 1027.371, 955.004 1026.503 C 954.483 1026.181, 953.212 1024.023, 952.180 1021.709 C 951.148 1019.394, 948.660 1015.545, 946.652 1013.155 C 943.305 1009.173, 943 1008.291, 943 1002.577 C 943 997.179, 943.436 995.710, 946.250 991.621 C 957.775 974.875, 962.323 965.275, 962.414 957.500 C 962.596 941.899, 960.209 927.212, 956.238 919.500 C 954.896 916.894, 949.077 909.322, 945.250 905.203 C 943.877 903.725, 943.576 898.625, 943.973 883.570 C 944.226 873.994, 944.391 873.344, 948.618 865.331 C 951.028 860.761, 953 856.454, 953 855.761 C 952.999 855.067, 954.311 851.800, 955.915 848.500 C 959.826 840.452, 961.531 832.206, 961.350 822.210 C 961.206 814.225, 960.968 813.433, 954.887 800.710 C 951.414 793.444, 946.898 784.800, 944.851 781.500 C 942.804 778.200, 939.902 773.530, 938.403 771.123 C 936.013 767.284, 935.673 765.716, 935.643 758.386 C 935.610 750.260, 935.756 749.735, 940.884 739.544 C 943.785 733.779, 947.915 726.856, 950.062 724.159 C 955.209 717.696, 956.267 712.381, 955.714 695.773 C 955.101 677.383, 953.699 669.452, 949.396 660.038 C 946.005 652.620, 945.771 651.511, 946.283 645.259 C 946.969 636.867, 951.756 624.614, 959.468 611.511 C 964.148 603.559, 965.381 600.444, 966.708 593.214 C 969.502 578.002, 969.502 569.301, 966.709 561.386 C 961.865 547.664, 956.088 533.609, 954.252 531.083 C 948.478 523.134, 945.710 516.670, 945.281 510.130 C 944.694 501.163, 947.115 494.625, 955.800 481.728 C 965.922 466.697, 966.003 466.490, 965.979 455.800 C 965.961 448.148, 965.452 445.082, 963.107 438.500 C 958.889 426.663, 952.820 412.416, 948.667 404.599 C 945.284 398.233, 945 397.048, 945 389.309 C 945 379.653, 946.445 375.988, 953.793 367.003 C 956.268 363.976, 960.815 356.349, 963.897 350.052 L 969.500 338.605 969.500 328.052 L 969.500 317.500 964.116 310 C 961.155 305.875, 955.737 299.125, 952.077 295 C 941.314 282.871, 941 282.348, 941 276.491 C 941 270.510, 942.840 264.615, 946.575 258.636 C 955.984 243.571, 957.967 239.447, 957.983 234.909 C 958.007 228.271, 955.822 221.987, 950.545 213.520 C 944.839 204.365, 936.783 197.013, 927.314 192.320 C 917.151 187.284, 911.745 187.720, 895.500 194.885 C 888.900 197.795, 882.600 200.379, 881.500 200.626 C 880.085 200.944, 876.064 198.293, 867.751 191.563 C 855.070 181.295, 842.861 173.597, 836.540 171.883 C 830.108 170.140, 825.993 171.950, 823.225 177.740 C 819.968 184.552, 805.962 198.881, 796.051 205.541 C 791.403 208.664, 781.705 214.054, 774.498 217.519 C 767.291 220.984, 758.943 225.276, 755.947 227.057 C 748.207 231.657, 739.408 232.198, 729 228.713 C 724.875 227.332, 716.775 224.978, 711 223.483 C 668.471 212.469, 645.717 202.797, 635.764 191.500 C 632.773 188.106, 628.035 179.423, 627.376 176.130 L 626.750 173 618.922 173 C 610.925 173, 608.158 173.759, 602 177.645 C 598.177 180.057, 581.469 186.756, 577.094 187.631 C 573.337 188.383, 563.414 184.084, 553.337 177.338 C 548.848 174.333, 542.773 170.960, 539.837 169.843 C 532.385 167.008, 521.219 166.281, 515.769 168.277 C 507.896 171.160, 500.225 173, 496.083 173 C 492.195 173, 481.844 170.515, 475.685 168.103 C 471.874 166.610, 462.649 166.822, 456.230 168.550" stroke="none" fill="#ffffff" fill-rule="evenodd"/><path d="M 253 32.044 C 223.688 34.945, 199.342 44.385, 183.592 58.958 C 177.676 64.432, 169.873 76.050, 167.056 83.580 C 165.172 88.615, 165 91.285, 165 115.455 L 165 141.834 170.089 157.991 C 172.888 166.877, 176.016 176.027, 177.042 178.324 C 178.936 182.568, 194.845 198.971, 202.457 204.528 C 204.633 206.118, 216.253 212.489, 228.279 218.688 C 254.395 232.151, 257.264 232.828, 270.500 228.656 C 277.376 226.488, 287.507 223.657, 310.500 217.476 C 320.064 214.905, 336.398 208.825, 344.558 204.799 C 362.204 196.092, 371.446 185.002, 374.390 169 C 374.643 167.625, 375.398 164.979, 376.068 163.120 C 378.081 157.534, 376.558 142.349, 372.545 128 C 369.048 115.497, 359.791 95.432, 352.707 85 C 351.027 82.525, 347.962 78.025, 345.898 75 C 343.833 71.975, 337.949 65.208, 332.822 59.963 C 325.230 52.195, 321.677 49.431, 313.673 45.065 C 308.268 42.116, 301.068 38.897, 297.673 37.911 C 294.278 36.925, 287.737 34.967, 283.137 33.559 C 274.325 30.863, 268.099 30.550, 253 32.044 M 716.500 33.540 C 712.100 34.956, 705.722 36.923, 702.327 37.909 C 698.932 38.896, 691.732 42.116, 686.327 45.065 C 678.323 49.431, 674.770 52.195, 667.178 59.963 C 662.051 65.208, 656.167 71.975, 654.102 75 C 652.038 78.025, 648.973 82.525, 647.293 85 C 640.209 95.432, 630.952 115.497, 627.455 128 C 623.435 142.374, 621.917 157.543, 623.940 163.120 C 624.614 164.979, 625.391 167.850, 625.666 169.500 C 625.940 171.150, 626.578 172.928, 627.083 173.450 C 627.587 173.972, 628 175.296, 628 176.392 C 628 177.487, 629.789 181.395, 631.976 185.075 C 640.762 199.866, 661.193 209.901, 707.322 222.083 C 715.670 224.288, 725.200 227.024, 728.500 228.163 C 732.439 229.524, 736.905 230.219, 741.500 230.187 C 748.358 230.139, 748.917 229.928, 769 219.792 C 780.275 214.101, 792.200 207.662, 795.500 205.483 C 805.289 199.019, 818.390 185.756, 822.150 178.503 C 823.961 175.011, 825.787 172.368, 826.209 172.629 C 826.632 172.890, 826.750 172.511, 826.472 171.787 C 826.194 171.063, 827.999 164.032, 830.483 156.163 L 835 141.855 835 115.465 C 835 85.251, 834.743 83.959, 826.103 70.793 C 816.631 56.359, 800.978 45.344, 780.500 38.703 C 770.422 35.434, 750.370 32.089, 737.500 31.530 C 725.416 31.006, 723.936 31.147, 716.500 33.540" stroke="none" fill="#040404" fill-rule="evenodd"/><path d="" stroke="none" fill="#fbfbfb" fill-rule="evenodd"/></svg>