<svg xmlns="http://www.w3.org/2000/svg" width="1200" height="1200" viewBox="0 0 1200 1200" version="1.1"><path d="M 414.450 96.970 C 395.418 98.663, 386.070 101.764, 370.293 111.621 C 343.237 128.523, 337.206 134.814, 326.302 157.507 L 321.500 167.500 321.573 185.500 C 321.646 203.484, 321.650 203.516, 326.288 222 C 332.475 246.653, 334.707 252.874, 343.072 268.774 L 350.161 282.251 346.331 286.351 C 344.224 288.606, 342.273 290.687, 341.995 290.976 C 324.768 308.874, 299.896 342.558, 288.444 363.500 C 286.339 367.350, 282.613 372.975, 280.164 376 C 277.715 379.025, 275.056 383.056, 274.256 384.957 C 273.455 386.858, 271.061 391.484, 268.935 395.236 C 266.808 398.988, 263.905 405.757, 262.483 410.279 C 261.061 414.800, 257.502 422.775, 254.574 428 C 245.009 445.066, 242.680 449.371, 237.810 458.984 C 235.167 464.200, 232.262 470.725, 231.352 473.484 C 229.566 478.905, 218.643 496.599, 189.981 540.500 C 154.404 594.992, 137.077 625.853, 124.851 656.500 C 119.549 669.792, 111.631 684.640, 94.721 713 C 71.993 751.119, 54.132 777.932, 46.428 785.500 C 37.825 793.951, 37.204 798.060, 43.957 801.856 C 50.608 805.594, 62.189 807.070, 88.316 807.509 C 112.683 807.918, 140.073 810.420, 152.500 813.372 C 155.800 814.155, 161.875 815.313, 166 815.943 C 170.125 816.574, 174.543 817.311, 175.818 817.581 L 178.136 818.072 175.074 821.786 C 168.811 829.382, 150.246 853.703, 146.285 859.500 C 144.031 862.800, 137.532 869.765, 131.843 874.978 C 126.154 880.190, 116.275 889.865, 109.889 896.478 C 60.016 948.116, 28.389 999.881, 19.757 1044 C 18.950 1048.125, 16.871 1055.955, 15.136 1061.400 C 13.402 1066.846, 11.086 1076.971, 9.989 1083.900 C 8.893 1090.830, 7.099 1100.550, 6.004 1105.500 C 1.046 1127.908, 0.675 1132.082, 0.534 1167 C 0.460 1185.425, 0.686 1198.025, 1.037 1195 C 1.398 1191.880, 1.750 1190.798, 1.851 1192.500 C 1.948 1194.150, 2.299 1196.513, 2.630 1197.750 L 3.233 1200 235.979 1200 L 468.726 1200 469.957 1192.250 C 475.106 1159.852, 490.145 1120.843, 506.297 1097.989 C 522.097 1075.633, 554.917 1045.483, 588 1022.931 C 593.745 1019.015, 595.139 1018.500, 600 1018.500 C 604.861 1018.500, 606.255 1019.015, 612 1022.931 C 645.083 1045.483, 677.903 1075.633, 693.703 1097.989 C 709.855 1120.843, 724.894 1159.852, 730.043 1192.250 L 731.274 1200 964.092 1200 L 1196.909 1200 1197.521 1196.250 C 1198.610 1189.579, 1198.766 1189.414, 1198.884 1194.809 C 1199.040 1201.928, 1201 1200.605, 1201 1193.382 C 1201 1189.970, 1200.620 1188.117, 1200 1188.500 C 1199.397 1188.873, 1199 1187.530, 1199 1185.118 C 1199 1182.918, 1199.450 1180.840, 1200 1180.500 C 1200.614 1180.120, 1201 1171.970, 1201 1159.382 C 1201 1145.970, 1200.654 1139.096, 1200 1139.500 C 1199.411 1139.864, 1198.998 1138.760, 1198.996 1136.809 C 1198.991 1132.442, 1196.484 1116.743, 1193.996 1105.500 C 1192.901 1100.550, 1191.107 1090.830, 1190.011 1083.900 C 1188.914 1076.971, 1186.598 1066.846, 1184.864 1061.400 C 1183.129 1055.955, 1181.050 1048.125, 1180.243 1044 C 1171.611 999.881, 1139.984 948.116, 1090.111 896.478 C 1083.725 889.865, 1073.846 880.190, 1068.157 874.978 C 1062.468 869.765, 1055.969 862.800, 1053.715 859.500 C 1049.754 853.703, 1031.189 829.382, 1024.926 821.786 L 1021.864 818.072 1024.182 817.581 C 1025.457 817.311, 1029.875 816.574, 1034 815.943 C 1038.125 815.313, 1044.200 814.155, 1047.500 813.372 C 1059.927 810.420, 1087.317 807.918, 1111.684 807.509 C 1137.811 807.070, 1149.392 805.594, 1156.043 801.856 C 1162.796 798.060, 1162.175 793.951, 1153.572 785.500 C 1145.868 777.932, 1128.007 751.119, 1105.279 713 C 1088.369 684.640, 1080.451 669.792, 1075.149 656.500 C 1062.923 625.853, 1045.596 594.992, 1010.019 540.500 C 981.357 496.599, 970.434 478.905, 968.648 473.484 C 967.738 470.725, 964.833 464.200, 962.190 458.984 C 957.320 449.371, 954.991 445.066, 945.426 428 C 942.498 422.775, 938.939 414.800, 937.517 410.279 C 936.095 405.757, 933.192 398.988, 931.065 395.236 C 928.939 391.484, 926.545 386.858, 925.744 384.957 C 924.944 383.056, 922.285 379.025, 919.836 376 C 917.387 372.975, 913.661 367.350, 911.556 363.500 C 900.104 342.558, 875.232 308.874, 858.005 290.976 C 857.727 290.687, 855.776 288.606, 853.669 286.351 L 849.839 282.251 856.928 268.774 C 865.293 252.874, 867.525 246.653, 873.712 222 C 878.350 203.516, 878.354 203.484, 878.427 185.500 L 878.500 167.500 873.698 157.507 C 862.794 134.814, 856.763 128.523, 829.707 111.621 C 811.408 100.189, 799.053 96.955, 772.567 96.665 C 759.052 96.517, 756.779 96.746, 750.500 98.886 C 739.171 102.749, 729.681 107.624, 721.086 113.996 C 710.460 121.875, 706.632 125.821, 698.685 137.089 C 695.034 142.265, 688.607 151.225, 684.404 157 C 676.323 168.103, 670.590 179.064, 666.970 190.330 C 664.971 196.550, 664.570 197.109, 662.479 196.584 C 661.216 196.267, 652.380 195.337, 642.842 194.516 C 633.304 193.696, 619.763 192.513, 612.750 191.888 C 603.225 191.038, 596.775 191.038, 587.250 191.888 C 580.237 192.513, 566.696 193.696, 557.158 194.516 C 547.620 195.337, 538.784 196.267, 537.521 196.584 C 535.430 197.109, 535.029 196.550, 533.030 190.330 C 529.410 179.064, 523.677 168.103, 515.596 157 C 511.393 151.225, 504.966 142.265, 501.315 137.089 C 493.371 125.825, 489.539 121.874, 478.934 114.011 C 470.262 107.581, 462.024 103.295, 450.688 99.315 C 442.492 96.437, 429.726 95.611, 414.450 96.970 M 595.983 210.330 C 595.698 210.626, 588.723 211.371, 580.483 211.985 C 563.287 213.267, 542.834 215.832, 541.788 216.838 C 541.397 217.215, 541.952 220.893, 543.021 225.012 C 544.091 229.130, 544.973 234.386, 544.983 236.691 C 544.992 238.996, 545.450 241.160, 546 241.500 C 547.491 242.422, 547.207 249.259, 545.581 251.581 C 543.588 254.426, 524.512 268.267, 515.245 273.591 C 505.811 279.012, 483.866 289.732, 475 293.252 C 426.959 312.323, 414.956 316.936, 411.902 317.500 C 402.365 319.263, 396.214 318.543, 383.500 314.173 C 380.200 313.039, 374.672 311.575, 371.215 310.919 C 366.597 310.042, 364.412 309.068, 362.978 307.245 C 361.905 305.881, 361.270 304.371, 361.568 303.890 C 361.865 303.409, 361.708 302.301, 361.219 301.426 C 360.105 299.436, 355.424 304.081, 340.744 321.745 C 315.042 352.672, 299.754 378.913, 274.016 436.282 C 268.007 449.676, 250.948 480.685, 239.787 498.500 C 235.652 505.100, 231.069 512.877, 229.601 515.782 C 228.134 518.687, 224.136 524.116, 220.717 527.847 C 216.092 532.892, 212.707 538.160, 207.500 548.412 C 203.650 555.993, 199.559 563.164, 198.409 564.347 C 194.245 568.634, 173.207 603.199, 161.798 624.500 C 152.278 642.274, 148.729 649.765, 142.851 664.500 C 137.384 678.205, 128.240 695.387, 112.248 722 C 91.403 756.690, 73.996 782.971, 67.632 789.360 C 64.492 792.514, 67.317 793.123, 81.500 792.351 C 100.168 791.334, 123.914 791.604, 135.500 792.963 C 157.196 795.508, 191.343 802.500, 207.438 807.693 C 218.302 811.198, 238.506 816.552, 261.500 822.018 C 268.100 823.587, 276.875 826.009, 281 827.401 C 285.125 828.792, 294.350 831.331, 301.500 833.042 C 322.406 838.047, 341.882 843.533, 377.500 854.451 C 383.550 856.306, 390.075 858.105, 392 858.450 C 393.925 858.795, 397.300 859.494, 399.500 860.004 C 401.700 860.513, 408.900 862.091, 415.500 863.510 C 422.100 864.929, 434.250 868.285, 442.500 870.967 C 456.321 875.461, 473.053 878.934, 488 880.412 C 491.025 880.711, 497.027 881.641, 501.338 882.478 C 505.649 883.315, 512.624 884.006, 516.838 884.013 C 521.052 884.020, 528.775 884.935, 534 886.045 C 550.469 889.546, 559.346 890.997, 564.292 890.999 C 566.928 890.999, 572.328 891.636, 576.292 892.414 C 598.585 896.787, 601.415 896.787, 623.708 892.414 C 627.672 891.636, 633.072 890.999, 635.708 890.999 C 640.654 890.997, 649.531 889.546, 666 886.045 C 671.225 884.935, 678.948 884.020, 683.162 884.013 C 687.376 884.006, 694.351 883.315, 698.662 882.478 C 702.973 881.641, 708.975 880.711, 712 880.412 C 726.947 878.934, 743.679 875.461, 757.500 870.967 C 765.750 868.285, 777.900 864.929, 784.500 863.510 C 791.100 862.091, 798.300 860.513, 800.500 860.004 C 802.700 859.494, 806.075 858.795, 808 858.450 C 809.925 858.105, 816.450 856.306, 822.500 854.451 C 858.118 843.533, 877.594 838.047, 898.500 833.042 C 905.650 831.331, 914.875 828.792, 919 827.401 C 923.125 826.009, 931.900 823.587, 938.500 822.018 C 961.494 816.552, 981.698 811.198, 992.562 807.693 C 1008.657 802.500, 1042.804 795.508, 1064.500 792.963 C 1076.086 791.604, 1099.832 791.334, 1118.500 792.351 C 1132.683 793.123, 1135.508 792.514, 1132.368 789.360 C 1126.004 782.971, 1108.597 756.690, 1087.752 722 C 1071.760 695.387, 1062.616 678.205, 1057.149 664.500 C 1051.271 649.765, 1047.722 642.274, 1038.202 624.500 C 1026.793 603.199, 1005.755 568.634, 1001.591 564.347 C 1000.441 563.164, 996.350 555.993, 992.500 548.412 C 987.293 538.160, 983.908 532.892, 979.283 527.847 C 975.864 524.116, 971.866 518.687, 970.399 515.782 C 968.931 512.877, 964.348 505.100, 960.213 498.500 C 949.052 480.685, 931.993 449.676, 925.984 436.282 C 900.246 378.913, 884.958 352.672, 859.256 321.745 C 844.576 304.081, 839.895 299.436, 838.781 301.426 C 838.292 302.301, 838.135 303.409, 838.432 303.890 C 838.730 304.371, 838.095 305.881, 837.022 307.245 C 835.588 309.068, 833.403 310.042, 828.785 310.919 C 825.328 311.575, 819.800 313.039, 816.500 314.173 C 803.786 318.543, 797.635 319.263, 788.098 317.500 C 785.044 316.936, 773.041 312.323, 725 293.252 C 716.134 289.732, 694.189 279.012, 684.755 273.591 C 675.488 268.267, 656.412 254.426, 654.419 251.581 C 652.793 249.259, 652.509 242.422, 654 241.500 C 654.550 241.160, 655.008 238.996, 655.017 236.691 C 655.027 234.386, 655.909 229.130, 656.979 225.012 C 658.048 220.893, 658.603 217.213, 658.212 216.833 C 657.259 215.910, 636.606 213.267, 620.500 212.007 C 613.350 211.447, 605.025 210.720, 602 210.391 C 598.975 210.062, 596.267 210.034, 595.983 210.330 M 408.619 357.063 C 402.653 358.791, 399.264 363.737, 396.329 375 C 393.394 386.264, 387.324 393.584, 366.423 411.065 C 350.851 424.088, 348.694 426.367, 346.957 431.631 C 345.943 434.703, 346.090 435.700, 348.150 439.700 C 351.013 445.260, 355.932 448.310, 361.028 447.683 C 367.847 446.845, 384.573 435.089, 400.303 420.079 C 409.768 411.047, 416.309 402.579, 420.219 394.294 L 423.147 388.088 427.324 390.794 C 429.621 392.282, 436 396.490, 441.500 400.144 C 447 403.799, 456.225 409.383, 462 412.554 C 467.775 415.725, 482.175 424.033, 494 431.017 C 505.825 438, 519.550 445.875, 524.500 448.517 C 529.450 451.159, 536.875 455.214, 541 457.530 C 561.794 469.200, 566.888 470.745, 574.329 467.636 C 581.567 464.612, 586.276 455.201, 584.132 448.045 C 582.035 441.048, 579.157 438.873, 558.313 428.533 C 547.416 423.127, 529.725 413.875, 519 407.972 C 508.275 402.069, 490.950 392.964, 480.500 387.739 C 470.050 382.513, 456.100 375.208, 449.500 371.505 C 427.509 359.166, 415.728 355.004, 408.619 357.063 M 782.500 356.941 C 776.966 357.898, 765.850 362.961, 750.500 371.517 C 743.350 375.503, 729.175 382.921, 719 388.002 C 708.825 393.083, 691.725 402.069, 681 407.972 C 670.275 413.875, 652.584 423.127, 641.687 428.533 C 620.843 438.873, 617.965 441.048, 615.868 448.045 C 613.724 455.201, 618.433 464.612, 625.671 467.636 C 633.112 470.745, 638.206 469.200, 659 457.530 C 663.125 455.214, 670.550 451.159, 675.500 448.517 C 680.450 445.875, 694.175 438, 706 431.017 C 717.825 424.033, 732.225 415.725, 738 412.554 C 743.775 409.383, 753 403.799, 758.500 400.144 C 764 396.490, 770.379 392.282, 772.676 390.794 L 776.853 388.088 779.781 394.294 C 783.691 402.579, 790.232 411.047, 799.697 420.079 C 815.427 435.089, 832.153 446.845, 838.972 447.683 C 844.068 448.310, 848.987 445.260, 851.850 439.700 C 853.910 435.700, 854.057 434.703, 853.043 431.631 C 851.306 426.367, 849.149 424.088, 833.577 411.065 C 812.699 393.603, 806.640 386.302, 803.648 375 C 801.454 366.714, 800.133 363.773, 797.243 360.744 C 795.061 358.456, 788.892 355.678, 787 356.131 C 786.725 356.197, 784.700 356.561, 782.500 356.941 M 500 524.662 C 432.539 527.042, 407.294 529.629, 390.020 535.933 C 375.765 541.136, 367.013 548.424, 367.004 555.102 C 366.998 558.754, 370.900 564.178, 375.020 566.248 C 379.448 568.473, 383.402 568.446, 402.212 566.063 C 424.029 563.298, 441.531 562.219, 492 560.531 C 544.864 558.762, 544.586 558.783, 553.500 555.786 C 563.144 552.543, 564.943 551.380, 566.657 547.277 C 570.237 538.710, 561.939 529.216, 547.500 525.359 C 542.823 524.110, 523.632 523.828, 500 524.662 M 652 525.352 C 641.847 528.355, 634.142 534.602, 632.494 541.167 C 631.654 544.515, 634.198 550.487, 637.165 552.136 C 641.426 554.502, 653.427 558.133, 658.500 558.591 C 661.250 558.839, 683.525 559.712, 708 560.531 C 758.469 562.219, 775.971 563.298, 797.788 566.063 C 816.598 568.446, 820.552 568.473, 824.980 566.248 C 829.100 564.178, 833.002 558.754, 832.996 555.102 C 832.979 543.317, 810.636 532.930, 777 529.071 C 745.675 525.477, 660.179 522.933, 652 525.352 M 456 691.453 C 453.525 692.751, 448.800 696.266, 445.500 699.264 C 434.992 708.809, 425.620 712.353, 407.874 713.491 C 394.375 714.358, 374.409 714.404, 370.129 713.579 C 363.105 712.225, 359.465 718.269, 364.471 722.973 C 368.368 726.634, 374.953 727.760, 390.500 727.424 C 422.202 726.739, 436.641 721.995, 452.501 707.056 C 458.508 701.398, 461.700 699.117, 464.139 698.739 C 465.988 698.453, 474.847 698.404, 483.828 698.632 C 498.838 699.011, 500.129 698.906, 499.825 697.330 C 499.384 695.041, 491.782 691.258, 485.114 690.009 C 482.151 689.454, 475.401 689.021, 470.114 689.047 C 462.005 689.086, 459.795 689.463, 456 691.453 M 714.009 690.099 C 708.088 691.258, 700.589 695.178, 700.175 697.330 C 699.871 698.906, 701.162 699.011, 716.172 698.632 C 725.153 698.404, 734.012 698.453, 735.861 698.739 C 738.300 699.117, 741.492 701.398, 747.499 707.056 C 763.359 721.995, 777.798 726.739, 809.500 727.424 C 825.047 727.760, 831.632 726.634, 835.529 722.973 C 840.535 718.269, 836.895 712.225, 829.871 713.579 C 825.591 714.404, 805.625 714.358, 792.126 713.491 C 774.379 712.353, 765.007 708.809, 754.500 699.263 C 744.855 690.499, 741.005 688.979, 728.783 689.110 C 723.127 689.170, 716.479 689.615, 714.009 690.099 M 581 714.137 C 555.039 715.907, 536.818 721.373, 526.120 730.600 C 521.603 734.497, 519 739.150, 519 743.330 C 519 746.448, 524.266 758.033, 526.648 760.155 C 530.440 763.533, 542.813 769.076, 552.500 771.735 L 562.500 774.480 600 774.480 L 637.500 774.480 647.500 771.735 C 657.187 769.076, 669.560 763.533, 673.352 760.155 C 675.734 758.033, 681 746.448, 681 743.330 C 681 739.150, 678.397 734.497, 673.880 730.600 C 662.740 720.991, 645.192 715.950, 616.170 714.019 C 599.387 712.903, 599.093 712.904, 581 714.137 M 598.926 791.407 C 598.579 791.755, 579.852 794.261, 561 796.484 C 559.075 796.711, 552.550 797.164, 546.500 797.491 C 530.669 798.346, 524.701 798.932, 514 800.682 C 499.149 803.110, 498.654 803.433, 495.690 812.655 C 490.070 830.144, 490.437 842.030, 496.999 854.975 C 500.262 861.413, 503.093 864.305, 508.232 866.452 C 514.096 868.903, 519.656 868.372, 529.294 864.443 C 544.615 858.197, 567.447 855.218, 600 855.218 C 632.553 855.218, 655.385 858.197, 670.706 864.443 C 680.344 868.372, 685.904 868.903, 691.768 866.452 C 696.907 864.305, 699.738 861.413, 703.001 854.975 C 709.563 842.030, 709.930 830.144, 704.310 812.655 C 702.109 805.808, 701.388 804.646, 698.644 803.522 C 692.511 801.011, 675.602 798.753, 653.500 797.493 C 648 797.179, 641.250 796.685, 638.500 796.393 C 627.765 795.257, 602.418 791.935, 600.928 791.469 C 600.063 791.199, 599.162 791.171, 598.926 791.407 M 0.423 1160.500 C 0.424 1172.050, 0.570 1176.638, 0.747 1170.696 C 0.924 1164.753, 0.923 1155.303, 0.745 1149.696 C 0.567 1144.088, 0.422 1148.950, 0.423 1160.500" stroke="none" fill="#000000" fill-rule="evenodd"/><path d="M 595.959 211.361 C 595.662 211.666, 583.794 212.841, 569.587 213.974 C 555.380 215.106, 543.406 216.249, 542.977 216.514 C 542.549 216.779, 543.046 220.259, 544.082 224.248 C 545.118 228.236, 545.973 233.322, 545.983 235.550 C 545.992 237.777, 546.428 240.028, 546.952 240.552 C 548.169 241.769, 548.556 247.827, 547.604 250.740 C 546.555 253.948, 526.452 268.712, 512.440 276.566 C 500.294 283.374, 482.346 291.864, 471.500 295.932 C 464.037 298.731, 458.669 300.856, 453.500 303.057 C 451.300 303.993, 445.225 306.424, 440 308.459 C 434.775 310.494, 429.150 312.761, 427.500 313.496 C 412.037 320.385, 400.781 321.141, 386 316.285 C 380.775 314.568, 373.800 312.603, 370.500 311.919 C 363.672 310.504, 361.286 308.864, 360.235 304.868 C 359.509 302.106, 359.402 302.183, 351.357 311.286 C 322.259 344.209, 304.321 372.527, 283.758 418 C 267.976 452.899, 257.814 472.073, 240.035 500.500 C 235.219 508.200, 230.300 516.730, 229.104 519.456 C 227.909 522.182, 224.133 527.357, 220.715 530.956 C 216.147 535.766, 212.696 540.947, 207.694 550.505 C 203.950 557.658, 198.464 566.433, 195.501 570.005 C 185.852 581.641, 160.360 625.042, 150.280 646.996 C 148.385 651.123, 145.041 659, 142.848 664.500 C 137.232 678.589, 128.130 695.589, 110.721 724.500 C 94.132 752.049, 81.746 771.120, 72.190 783.827 L 65.929 792.153 71.215 791.506 C 74.122 791.151, 87.525 790.800, 101 790.726 C 126.664 790.585, 141.655 791.788, 155 795.060 C 159.125 796.071, 167.225 797.601, 173 798.460 C 185.018 800.247, 201.813 804.210, 209.396 807.047 C 214.458 808.941, 239.019 815.436, 262 820.958 C 268.325 822.478, 277.775 825.090, 283 826.763 C 288.225 828.436, 296.775 830.801, 302 832.018 C 319.492 836.093, 344.383 843.079, 378.500 853.489 C 384.550 855.335, 394.225 857.807, 400 858.981 C 421.723 863.400, 428.904 865.216, 443.500 869.980 C 457.814 874.653, 478.287 878.955, 486.611 879.039 C 488.750 879.061, 494.410 879.896, 499.189 880.895 C 503.968 881.894, 511.843 882.799, 516.689 882.906 C 524.052 883.069, 541.338 885.750, 546.181 887.481 C 546.906 887.741, 554.250 888.850, 562.500 889.947 C 570.750 891.044, 582.562 892.671, 588.750 893.563 C 599.125 895.058, 600.875 895.058, 611.250 893.563 C 617.437 892.671, 629.250 891.044, 637.500 889.947 C 645.750 888.850, 653.094 887.741, 653.819 887.481 C 658.662 885.750, 675.948 883.069, 683.311 882.906 C 688.157 882.799, 696.032 881.894, 700.811 880.895 C 705.590 879.896, 711.250 879.061, 713.389 879.039 C 721.713 878.955, 742.186 874.653, 756.500 869.980 C 771.096 865.216, 778.277 863.400, 800 858.981 C 805.775 857.807, 815.450 855.335, 821.500 853.489 C 855.617 843.079, 880.508 836.093, 898 832.018 C 903.225 830.801, 911.775 828.436, 917 826.763 C 922.225 825.090, 931.675 822.478, 938 820.958 C 960.981 815.436, 985.542 808.941, 990.604 807.047 C 998.187 804.210, 1014.982 800.247, 1027 798.460 C 1032.775 797.601, 1040.875 796.071, 1045 795.060 C 1058.345 791.788, 1073.336 790.585, 1099 790.726 C 1112.475 790.800, 1125.878 791.151, 1128.785 791.506 L 1134.071 792.153 1127.810 783.827 C 1118.254 771.120, 1105.868 752.049, 1089.279 724.500 C 1071.870 695.589, 1062.768 678.589, 1057.152 664.500 C 1054.959 659, 1051.615 651.123, 1049.720 646.996 C 1039.640 625.042, 1014.148 581.641, 1004.499 570.005 C 1001.536 566.433, 996.050 557.658, 992.306 550.505 C 987.304 540.947, 983.853 535.766, 979.285 530.956 C 975.867 527.357, 972.091 522.182, 970.896 519.456 C 969.700 516.730, 964.781 508.200, 959.965 500.500 C 942.186 472.073, 932.024 452.899, 916.242 418 C 906.672 396.836, 904.502 392.496, 895.993 377.500 C 881.417 351.812, 868.516 333.772, 848.643 311.286 C 840.598 302.183, 840.491 302.106, 839.765 304.868 C 838.714 308.864, 836.328 310.504, 829.500 311.919 C 826.200 312.603, 819.225 314.568, 814 316.285 C 799.219 321.141, 787.963 320.385, 772.500 313.496 C 770.850 312.761, 765.225 310.494, 760 308.459 C 754.775 306.424, 748.700 303.993, 746.500 303.057 C 741.331 300.856, 735.963 298.731, 728.500 295.932 C 717.654 291.864, 699.706 283.374, 687.560 276.566 C 673.548 268.712, 653.445 253.948, 652.396 250.740 C 651.444 247.827, 651.831 241.769, 653.048 240.552 C 653.572 240.028, 654.008 237.777, 654.017 235.550 C 654.027 233.322, 654.882 228.236, 655.918 224.248 C 656.954 220.259, 657.452 216.779, 657.024 216.515 C 656.597 216.251, 645.054 215.107, 631.374 213.972 C 617.693 212.838, 604.250 211.661, 601.500 211.358 C 598.750 211.055, 596.257 211.056, 595.959 211.361 M 406.401 356.874 C 400.689 359.512, 397.214 364.941, 395.439 374 C 393.497 383.912, 383.373 395.771, 362.399 412.703 C 350.895 421.989, 347.650 425.499, 346.030 430.410 C 342.758 440.324, 352.437 450.763, 362.953 448.659 C 368.833 447.483, 382.342 438.039, 397.361 424.604 C 410.871 412.518, 416.289 405.424, 423.656 390.178 C 423.741 390, 429.816 393.887, 437.156 398.815 C 444.495 403.743, 457.250 411.484, 465.500 416.019 C 473.750 420.553, 488.600 429.098, 498.500 435.006 C 516.985 446.039, 536.267 456.767, 553 465.326 C 561.857 469.857, 562.915 470.160, 568.630 469.803 C 573.462 469.502, 575.549 468.819, 578.489 466.576 C 582.767 463.313, 585.956 457.088, 585.956 452 C 585.956 447.939, 583.123 441.239, 580.391 438.838 C 579.351 437.924, 568.375 432.125, 556 425.950 C 543.625 419.776, 526.442 410.749, 517.816 405.889 C 509.190 401.030, 492.765 392.390, 481.316 386.689 C 469.867 380.988, 455.775 373.645, 450 370.371 C 444.225 367.097, 437.925 363.692, 436 362.805 C 419.781 355.325, 412.788 353.923, 406.401 356.874 M 781.500 356.033 C 777.945 356.756, 770.225 359.780, 763 363.278 C 761.625 363.944, 755.775 367.152, 750 370.406 C 744.225 373.661, 730.133 380.988, 718.684 386.689 C 707.235 392.390, 690.810 401.030, 682.184 405.889 C 673.558 410.749, 656.375 419.776, 644 425.950 C 631.625 432.125, 620.649 437.924, 619.609 438.838 C 616.877 441.239, 614.044 447.939, 614.044 452 C 614.044 457.088, 617.233 463.313, 621.511 466.576 C 624.451 468.819, 626.538 469.502, 631.370 469.803 C 637.085 470.160, 638.143 469.857, 647 465.326 C 663.733 456.767, 683.015 446.039, 701.500 435.006 C 711.400 429.098, 726.250 420.553, 734.500 416.019 C 742.750 411.484, 755.505 403.743, 762.844 398.815 C 770.184 393.887, 776.259 390, 776.344 390.178 C 783.711 405.424, 789.129 412.518, 802.639 424.604 C 817.658 438.039, 831.167 447.483, 837.047 448.659 C 847.563 450.763, 857.242 440.324, 853.970 430.410 C 852.350 425.499, 849.105 421.989, 837.601 412.703 C 816.627 395.771, 806.503 383.912, 804.561 374 C 802.783 364.925, 799.300 359.495, 793.599 356.905 C 789.173 354.895, 787.636 354.785, 781.500 356.033 M 866.200 461.200 C 864.191 463.209, 864.881 467.271, 868.018 471.900 C 871.792 477.469, 872.158 483.011, 868.750 482.978 C 864.760 482.939, 858.266 479.328, 856.842 476.356 C 854.487 471.442, 849 472.438, 849 477.778 C 849 487.681, 869.866 496.320, 877.638 489.635 C 880.014 487.591, 880.446 486.361, 880.813 480.597 C 881.215 474.284, 881.033 473.591, 877.436 467.712 C 875.346 464.296, 873.155 461.169, 872.568 460.765 C 870.924 459.634, 867.534 459.866, 866.200 461.200 M 904.500 470.626 C 900.518 472.314, 896.376 475.244, 892.186 479.335 C 886.081 485.296, 885.892 485.632, 886.465 489.500 C 886.790 491.700, 887.065 494.709, 887.074 496.186 C 887.094 499.375, 892.327 504.380, 898.449 507.065 C 903.463 509.265, 916.522 512, 922.008 512 C 929.058 512, 934.047 507.892, 932.354 503.481 C 931.569 501.434, 929.240 500.883, 919.500 500.438 C 914.550 500.212, 907.101 499.281, 902.947 498.369 C 896.707 497, 895.031 496.202, 893.310 493.780 C 892.155 492.154, 891.453 489.985, 891.733 488.912 C 892.831 484.713, 902.387 478.747, 910 477.507 C 915.379 476.631, 917 475.489, 917 472.578 C 917 467.446, 913.345 466.876, 904.500 470.626 M 847.835 495.673 C 845.563 496.275, 844.825 498.610, 846.474 499.978 C 847.219 500.596, 852.600 501.373, 858.432 501.703 C 867.636 502.224, 869.363 502.607, 871.518 504.604 C 872.883 505.869, 874 507.989, 874 509.315 C 874 512.395, 866.124 519.890, 859.202 523.397 C 851.293 527.405, 847.816 533.800, 854.250 532.504 C 860.717 531.202, 867.781 526.909, 874.408 520.254 C 881.098 513.537, 881.132 513.474, 880.709 508.703 C 880.254 503.555, 877.071 499.165, 871.800 496.411 C 869.228 495.067, 852.112 494.540, 847.835 495.673 M 893 518.381 C 887.237 519.652, 883.006 521.542, 881.765 523.400 C 881.361 524.005, 881.024 526.497, 881.015 528.938 C 880.992 535.574, 886.495 542.666, 889.991 540.506 C 891.578 539.525, 891.181 537.164, 888.913 534.096 C 885.617 529.638, 886.637 526.731, 892 525.296 C 897.636 523.788, 907.352 524.649, 911.841 527.055 C 915.531 529.032, 917.542 528.724, 919.024 525.955 C 922.704 519.079, 908.534 514.955, 893 518.381 M 497 523.695 C 474.741 524.352, 428.692 527.171, 419 528.471 C 397.843 531.307, 385.711 534.925, 375.542 541.430 C 366.200 547.406, 363.528 555.003, 368.270 562.102 C 373.178 569.449, 378.467 570.198, 403.181 567.047 C 424.858 564.284, 450.205 562.713, 494 561.420 C 538.822 560.096, 546.889 559.461, 554.927 556.622 C 564.596 553.206, 566.574 551.820, 568.018 547.446 C 571.197 537.813, 563.126 528.266, 548.500 524.359 C 543.742 523.088, 525.533 522.854, 497 523.695 M 651 524.351 C 643.700 526.512, 638.435 529.663, 635.109 533.862 C 631.317 538.650, 630.398 542.645, 631.982 547.446 C 633.426 551.820, 635.404 553.206, 645.073 556.622 C 653.111 559.461, 661.178 560.096, 706 561.420 C 749.795 562.713, 775.142 564.284, 796.819 567.047 C 821.533 570.198, 826.822 569.449, 831.730 562.102 C 841.772 547.071, 819.808 533.054, 778.436 528.092 C 749.795 524.656, 658.977 521.991, 651 524.351 M 234.309 592.250 C 233.864 592.938, 233.250 598.526, 232.945 604.668 C 232.438 614.861, 232.126 616.257, 229.371 620.668 C 226.453 625.339, 226.209 625.491, 222.068 625.220 C 217.153 624.898, 212.911 622.952, 208.222 618.867 C 203.930 615.129, 197.173 611.719, 195.403 612.399 C 192.889 613.363, 193.800 617.694, 197.037 620.174 C 198.708 621.453, 202.301 624.393, 205.022 626.707 C 210.516 631.378, 217.725 634, 225.076 634 C 228.902 634, 230.376 633.451, 232.912 631.082 C 240.890 623.630, 244.571 605.601, 240.154 595.615 C 238.147 591.078, 235.904 589.786, 234.309 592.250 M 254.230 623.506 C 246.616 625.620, 243.742 627.351, 239.115 632.607 C 235.308 636.931, 235 637.715, 235 643.064 C 235 648.151, 235.359 649.206, 237.990 651.837 C 239.635 653.481, 243.573 655.730, 246.740 656.835 C 252.430 658.818, 252.455 658.843, 248.770 658.921 C 236.736 659.176, 222 672.214, 222 682.606 C 222 692.340, 226.733 695.617, 228.324 686.987 C 228.779 684.519, 229.325 681.600, 229.537 680.500 C 230 678.105, 238.934 670.823, 242.774 669.711 C 246.687 668.578, 254.941 668.706, 256.407 669.923 C 257.094 670.493, 258.882 673.464, 260.381 676.525 C 263.411 682.713, 266.503 684.872, 269.806 683.104 C 273.490 681.132, 273.406 678.425, 269.438 671.229 C 267.397 667.528, 264.837 663.516, 263.749 662.313 L 261.770 660.126 272.635 660.289 C 282.436 660.437, 283.915 660.217, 287.739 658.048 C 292.231 655.500, 293.950 652.550, 292.049 650.649 C 291.275 649.876, 285.269 649.486, 273.699 649.457 C 259.239 649.421, 255.624 649.103, 251 647.457 C 246.698 645.926, 245.428 644.989, 245.168 643.152 C 244.509 638.498, 252.185 633.043, 262.760 630.650 C 267.505 629.576, 268.558 628.954, 268.835 627.060 C 269.019 625.800, 268.794 624.394, 268.335 623.936 C 266.689 622.292, 259.404 622.071, 254.230 623.506 M 198 638.606 C 190.448 639.470, 181.939 642.246, 180.902 644.183 C 179.100 647.551, 181.563 649.297, 186.943 648.463 C 189.449 648.074, 196.134 647.813, 201.797 647.882 C 210.027 647.982, 212.899 648.418, 216.107 650.054 C 219.649 651.862, 220.083 652.466, 219.810 655.211 C 219.562 657.701, 218.414 659.066, 214.042 662.069 C 208.735 665.713, 205.962 666.864, 197.353 668.995 C 187.115 671.529, 193.591 679.464, 204.458 677.701 C 210.081 676.788, 219.046 671.784, 224.790 666.353 L 230.245 661.194 229.829 654.654 C 229.348 647.095, 228.302 645.571, 220.795 641.485 C 215.566 638.639, 207.078 637.567, 198 638.606 M 455.500 690.378 C 452.750 691.674, 448.179 695.018, 445.343 697.807 C 442.506 700.596, 437.447 704.260, 434.100 705.950 C 422.689 711.710, 419.054 712.250, 389.537 712.569 C 365.331 712.832, 362.445 713.039, 361.309 714.592 C 357.942 719.197, 363.986 726.226, 372.919 728.097 C 379.653 729.507, 403.462 728.685, 416 726.609 C 431.224 724.089, 442.749 718.263, 454.135 707.331 L 461.770 700 468.135 699.938 C 473.920 699.882, 488.354 700.108, 496.876 700.389 C 499.157 700.464, 500.617 699.906, 501.376 698.671 C 502.325 697.128, 501.921 696.336, 498.791 693.600 C 495.734 690.928, 493.712 690.150, 487.291 689.173 C 483.006 688.520, 475.225 687.994, 470 688.003 C 462.122 688.017, 459.647 688.422, 455.500 690.378 M 711.256 689.278 C 706.482 690.042, 704.128 691.050, 701.256 693.560 C 698.084 696.331, 697.675 697.126, 698.624 698.671 C 699.383 699.906, 700.843 700.464, 703.124 700.389 C 711.646 700.108, 726.080 699.882, 731.865 699.938 L 738.230 700 745.865 707.331 C 757.251 718.263, 768.776 724.089, 784 726.609 C 796.538 728.685, 820.347 729.507, 827.081 728.097 C 836.014 726.226, 842.058 719.197, 838.691 714.592 C 837.555 713.039, 834.669 712.832, 810.463 712.569 C 780.946 712.250, 777.311 711.710, 765.900 705.950 C 762.553 704.260, 757.494 700.596, 754.657 697.807 C 751.821 695.018, 747.250 691.674, 744.500 690.378 C 740.119 688.311, 738.139 688.036, 728.500 688.149 C 722.450 688.220, 714.690 688.728, 711.256 689.278 M 581.500 713.092 C 559.055 714.483, 542.584 718.560, 530.836 725.631 C 525.518 728.832, 519 735.041, 519 736.905 C 519 737.365, 513.038 738.498, 505.750 739.424 C 481.601 742.492, 473.494 745.471, 464.714 754.500 C 459.434 759.929, 457.807 762.540, 455.569 769.172 C 451.563 781.042, 450.627 805.700, 453.875 813.815 C 454.907 816.392, 456.268 821.875, 456.899 826 C 458.512 836.530, 461.550 842.027, 472.099 853.500 C 481.568 863.799, 484.727 866.287, 491.252 868.589 C 493.337 869.324, 496.495 870.578, 498.271 871.375 C 505.533 874.634, 512.641 875.297, 544.946 875.727 C 615.318 876.664, 685.025 875.879, 693.054 874.059 C 696.049 873.380, 699.953 872.172, 701.729 871.375 C 703.505 870.578, 706.663 869.324, 708.748 868.589 C 715.273 866.287, 718.432 863.799, 727.901 853.500 C 738.450 842.027, 741.488 836.530, 743.101 826 C 743.732 821.875, 745.093 816.392, 746.125 813.815 C 749.373 805.700, 748.437 781.042, 744.431 769.172 C 742.193 762.540, 740.566 759.929, 735.286 754.500 C 726.506 745.471, 718.399 742.492, 694.250 739.424 C 686.962 738.498, 681 737.383, 681 736.947 C 681 735.186, 675.256 729.499, 670.231 726.285 C 653.443 715.546, 620.629 710.667, 581.500 713.092 M 966.630 718.250 C 965.349 723.031, 965.957 729.651, 967.833 731.349 C 972.358 735.444, 989.892 738.046, 995.131 735.400 C 999.832 733.026, 1003.002 728.293, 1002.985 723.673 C 1002.976 721.378, 1002.550 718.837, 1002.037 718.026 C 1001.251 716.782, 1000.668 716.932, 998.303 718.989 C 996.761 720.329, 994.499 722.561, 993.275 723.948 C 991.200 726.300, 990.426 726.471, 981.775 726.485 L 972.500 726.500 971.568 721.250 C 970.873 717.340, 970.201 716, 968.934 716 C 967.999 716, 966.962 717.013, 966.630 718.250 M 942.500 736.413 C 940.523 737.982, 940.522 738.017, 942.441 739.500 C 943.509 740.325, 946.026 741, 948.036 741 C 950.178 741, 954.341 742.345, 958.095 744.250 C 969.022 749.794, 967.220 752.916, 950.420 757.546 C 941.157 760.099, 937.311 761.894, 934.537 764.959 C 932.869 766.802, 932.795 767.259, 934.040 768.046 C 939.662 771.602, 966.771 763.448, 971.428 756.800 C 975.668 750.746, 971.939 742.235, 963.318 738.288 C 956.180 735.020, 945.470 734.055, 942.500 736.413 M 983.920 740.324 C 978.405 743.241, 976.177 747.010, 975.362 754.809 C 974.745 760.714, 974.833 761.042, 977.774 763.789 C 981.569 767.334, 988.982 769.800, 999.902 771.150 C 1009.164 772.295, 1013.438 771.818, 1016.184 769.333 C 1017.659 767.999, 1018.750 764.229, 1017.750 763.924 C 1017.612 763.882, 1011.425 763.491, 1004 763.056 C 995.614 762.564, 989.079 761.665, 986.750 760.683 C 983.238 759.202, 983 758.828, 983 754.774 C 983 746.391, 987.220 744.015, 1002.125 744.006 C 1012.194 743.999, 1017 743.216, 1017 741.582 C 1017 739.617, 1008.487 738, 998.143 738 C 989.785 738, 987.657 738.348, 983.920 740.324 M 961.081 771.605 C 957.550 772.377, 952.713 774.150, 950.331 775.546 C 946.838 777.593, 946 778.633, 946 780.920 C 946 784.691, 948.180 786.509, 950.936 785.034 C 952.071 784.427, 953 783.544, 953 783.073 C 953 780.079, 973.714 776.786, 982.354 778.407 C 985.379 778.974, 986 779.511, 986 781.559 C 986 782.916, 985.441 784.923, 984.757 786.017 C 983.838 787.490, 983.801 788.461, 984.614 789.753 C 986.203 792.277, 988.241 792.355, 990.779 789.992 C 992.620 788.276, 993 786.844, 993 781.616 C 993 774.849, 992.211 773.543, 986.703 771.193 C 983.015 769.620, 969.138 769.843, 961.081 771.605 M 588.289 1024.317 C 548.115 1051.739, 513.286 1086.011, 498.213 1112.951 C 489.533 1128.463, 480.623 1151.541, 475.546 1171.661 C 473.540 1179.609, 470 1196.812, 470 1198.610 C 470 1199.790, 489.687 1200, 600 1200 C 710.313 1200, 730 1199.790, 730 1198.610 C 730 1196.812, 726.460 1179.609, 724.454 1171.661 C 719.377 1151.541, 710.467 1128.463, 701.787 1112.951 C 686.714 1086.011, 651.885 1051.739, 611.711 1024.317 C 605.566 1020.122, 603.095 1019, 600 1019 C 596.905 1019, 594.434 1020.122, 588.289 1024.317" stroke="none" fill="#ffffff" fill-rule="evenodd"/><path d="M 233.349 602 C 233.349 606.675, 233.522 608.587, 233.732 606.250 C 233.943 603.913, 233.943 600.087, 233.732 597.750 C 233.522 595.413, 233.349 597.325, 233.349 602 M 383.250 713.735 C 385.863 713.941, 390.137 713.941, 392.750 713.735 C 395.363 713.529, 393.225 713.360, 388 713.360 C 382.775 713.360, 380.637 713.529, 383.250 713.735 M 807.250 713.735 C 809.862 713.941, 814.138 713.941, 816.750 713.735 C 819.362 713.529, 817.225 713.360, 812 713.360 C 806.775 713.360, 804.638 713.529, 807.250 713.735 M 385.776 728.733 C 388.128 728.945, 391.728 728.942, 393.776 728.727 C 395.824 728.512, 393.900 728.339, 389.500 728.343 C 385.100 728.346, 383.424 728.522, 385.776 728.733 M 806.776 728.733 C 809.128 728.945, 812.728 728.942, 814.776 728.727 C 816.824 728.512, 814.900 728.339, 810.500 728.343 C 806.100 728.346, 804.424 728.522, 806.776 728.733 M 504.500 740.023 C 486.213 742.557, 482.438 743.541, 474.500 747.842 C 465.491 752.723, 458.786 760.716, 455.923 769.984 C 451.820 783.269, 450.976 806.185, 454.350 812.709 C 455.237 814.424, 456.244 818.454, 456.589 821.664 C 458.090 835.634, 460.725 840.752, 473.502 854.500 C 482.303 863.971, 485.197 866.102, 493.149 868.965 C 496.092 870.024, 500.405 871.586, 502.734 872.435 C 508.599 874.574, 539.234 876.046, 551.228 874.765 C 558.267 874.013, 563.566 874.143, 573.954 875.323 C 591.172 877.278, 608.828 877.278, 626.046 875.323 C 636.434 874.143, 641.733 874.013, 648.772 874.765 C 660.766 876.046, 691.401 874.574, 697.266 872.435 C 699.595 871.586, 703.908 870.024, 706.851 868.965 C 714.803 866.102, 717.697 863.971, 726.498 854.500 C 739.275 840.752, 741.910 835.634, 743.411 821.664 C 743.756 818.454, 744.763 814.424, 745.650 812.709 C 747.884 808.390, 748.408 799.393, 747.150 786.990 C 744.912 764.937, 739.016 754.818, 723.975 747.217 C 716.399 743.389, 714.015 742.729, 701.500 740.997 C 693.800 739.931, 686.150 738.868, 684.500 738.634 C 681.511 738.210, 681.500 738.228, 681.395 743.354 C 681.321 746.964, 680.376 750.291, 678.233 754.500 C 673.571 763.651, 664.522 768.543, 643.156 773.464 C 632.589 775.898, 630.848 776, 600 776 C 569.152 776, 567.411 775.898, 556.844 773.464 C 543.706 770.438, 537.630 768.227, 530.297 763.802 C 523.387 759.633, 518.772 751.520, 518.605 743.251 C 518.547 740.364, 518.275 738.051, 518 738.112 C 517.725 738.172, 511.650 739.032, 504.500 740.023 M 999.250 763.735 C 1001.862 763.941, 1006.138 763.941, 1008.750 763.735 C 1011.362 763.529, 1009.225 763.360, 1004 763.360 C 998.775 763.360, 996.638 763.529, 999.250 763.735 M 971.728 770.722 C 973.503 770.943, 976.653 770.946, 978.728 770.730 C 980.802 770.513, 979.350 770.333, 975.500 770.328 C 971.650 770.324, 969.952 770.501, 971.728 770.722 M 970.750 777.732 C 973.087 777.943, 976.913 777.943, 979.250 777.732 C 981.587 777.522, 979.675 777.349, 975 777.349 C 970.325 777.349, 968.413 777.522, 970.750 777.732 M 581 793.062 C 574.125 794.049, 558.184 795.592, 545.575 796.491 C 519.924 798.319, 502.828 800.991, 499.131 803.752 C 494.712 807.051, 490.581 824.762, 491.260 837.500 C 491.811 847.830, 496.553 859.660, 501.915 864.084 C 508.882 869.831, 517.701 870.513, 527.832 866.088 C 544.822 858.667, 560.789 856.559, 600 856.559 C 639.211 856.559, 655.178 858.667, 672.168 866.088 C 682.299 870.513, 691.118 869.831, 698.085 864.084 C 703.447 859.660, 708.189 847.830, 708.740 837.500 C 709.419 824.762, 705.288 807.051, 700.869 803.752 C 697.313 801.097, 679.878 798.254, 659.308 796.975 C 649.514 796.365, 632.840 794.772, 622.256 793.434 C 600.196 790.644, 597.982 790.624, 581 793.062" stroke="none" fill="#cdcdcd" fill-rule="evenodd"/><path d="M 866.667 461.667 C 865.153 463.180, 866.223 467.776, 869.065 471.971 C 872.804 477.489, 872.914 483.299, 869.290 483.814 C 865.846 484.304, 858.163 480.451, 856.853 477.578 C 855.652 474.941, 852.758 473.414, 851.009 474.494 C 850.454 474.837, 850 476.350, 850 477.856 C 850 481.199, 855.801 487.194, 861.218 489.451 C 864.989 491.022, 872.502 491.512, 875.455 490.379 C 879.791 488.715, 881.533 476.878, 878.352 470.700 C 874.257 462.750, 869.365 458.968, 866.667 461.667 M 905.187 471.146 C 901.802 472.446, 897.498 475.409, 893.331 479.307 L 886.788 485.428 887.424 489.964 C 887.773 492.459, 888.159 495.603, 888.280 496.951 C 888.824 503.007, 903.601 509.790, 918.286 510.723 C 926.492 511.245, 927.234 511.129, 929.536 508.966 C 935.230 503.617, 931.700 501.437, 916 500.605 C 898.444 499.675, 891.117 496.520, 891.033 489.854 C 890.973 485.037, 899.904 478.717, 909.251 476.963 C 915.180 475.850, 917.474 473.754, 915.926 470.862 C 914.663 468.501, 911.878 468.575, 905.187 471.146 M 851.269 495.940 C 841.501 497.532, 845.170 500.173, 858.218 500.941 C 871.092 501.700, 875 503.761, 875 509.789 C 875 512.288, 865.597 521.155, 859.927 524.002 C 855.222 526.365, 851 529.779, 851 531.220 C 851 532.677, 858.211 530.913, 863.238 528.227 C 865.843 526.835, 870.737 522.819, 874.113 519.304 C 880.178 512.988, 880.244 512.857, 879.720 508.208 C 879.284 504.340, 878.520 502.925, 875.430 500.253 C 869.680 495.283, 862.818 494.058, 851.269 495.940 M 893 518.977 C 883.895 520.922, 880.306 524.485, 881.428 530.466 C 882.078 533.935, 886.336 540, 888.120 540 C 890.128 540, 890.063 537.004, 887.993 534.205 C 885.188 530.410, 885.695 526.903, 889.299 525.181 C 893.736 523.061, 907.148 523.525, 911.928 525.963 C 915.508 527.790, 916.025 527.832, 917.439 526.418 C 920.117 523.741, 919.051 521.755, 913.747 519.539 C 909.883 517.924, 899.276 517.637, 893 518.977 M 235.243 592.261 C 234.702 592.942, 234.028 598.267, 233.745 604.094 C 233.202 615.289, 231.218 621.790, 227.279 625.284 C 225.541 626.826, 224.620 626.923, 220.507 626.002 C 214.765 624.715, 212.519 623.592, 208.222 619.859 C 206.419 618.294, 203.099 616.071, 200.844 614.920 C 197.147 613.035, 196.591 612.980, 195.200 614.372 C 193.505 616.067, 193.167 615.673, 204.327 624.996 C 211.258 630.786, 214.609 632.239, 222.293 632.789 C 228.742 633.250, 229.263 633.123, 232.144 630.388 C 237.508 625.296, 240.286 618.502, 240.797 609.226 C 241.142 602.973, 240.837 599.861, 239.548 596.486 C 237.615 591.424, 236.655 590.482, 235.243 592.261 M 253.558 624.535 C 243.020 627.426, 236 634.894, 236 643.214 C 236 651.203, 238.084 653.272, 250 657.118 C 255.281 658.822, 255.357 658.895, 251.907 658.946 C 247.320 659.015, 237.717 662.304, 234.208 665.008 C 232.718 666.155, 229.588 669.368, 227.250 672.146 C 223.336 676.799, 223 677.650, 223 682.908 C 223 686.276, 223.585 689.414, 224.425 690.559 C 225.800 692.431, 225.889 692.400, 226.925 689.685 C 227.516 688.137, 228 685.325, 228 683.438 C 228 675.662, 240 667.635, 250.777 668.202 L 256.457 668.500 260.226 675 C 264.740 682.784, 267.160 684.285, 270.235 681.209 L 272.375 679.070 269.937 673.849 C 266.121 665.675, 262.436 661.172, 258.768 660.203 C 256.654 659.645, 260.092 659.483, 268.500 659.747 C 280.600 660.126, 281.807 659.993, 285.937 657.827 C 291.162 655.086, 293.032 652.632, 291.250 650.850 C 290.400 650, 285.834 649.709, 275.772 649.863 C 255.775 650.170, 245.549 648.036, 244.363 643.308 C 243.903 641.478, 244.467 640.106, 246.625 637.806 C 249.680 634.550, 258.696 630, 262.094 630 C 265.205 630, 268 628.141, 268 626.072 C 268 622.717, 262.367 622.118, 253.558 624.535 M 191.050 640.558 C 184.754 641.923, 180.169 644.846, 181.343 646.746 C 181.689 647.305, 187.986 647.519, 196.714 647.268 C 210.684 646.865, 211.748 646.970, 216 649.171 C 219.488 650.976, 220.572 652.132, 220.822 654.310 C 220.999 655.856, 220.620 657.753, 219.979 658.525 C 217.255 661.808, 207.696 667.118, 201.830 668.608 C 193.018 670.846, 191.456 672.313, 194.571 675.429 C 197.077 677.934, 205.670 677.471, 211.554 674.514 C 224.274 668.121, 230.585 660.802, 229.523 653.680 C 228.679 648.013, 226.483 645.398, 219.745 642.031 C 214.425 639.372, 212.687 639.010, 205.590 639.079 C 201.141 639.123, 194.597 639.788, 191.050 640.558 M 967.553 717.833 C 967.233 718.841, 966.878 721.802, 966.765 724.412 C 966.591 728.394, 966.947 729.451, 968.971 730.978 C 972.281 733.475, 977.136 734.779, 986.076 735.572 C 993.578 736.238, 993.688 736.213, 997.302 733.040 C 999.309 731.277, 1001.361 728.353, 1001.861 726.542 C 1002.786 723.192, 1002.318 718, 1001.092 718 C 1000.720 718, 998.461 719.992, 996.071 722.428 C 991.938 726.638, 991.372 726.888, 984.484 727.534 C 980.501 727.907, 975.887 727.914, 974.230 727.550 C 971.446 726.939, 971.165 726.474, 970.536 721.444 C 969.850 715.948, 968.623 714.463, 967.553 717.833 M 943 736.948 C 941.667 737.883, 941.667 738.109, 943 738.985 C 943.825 739.526, 945.721 739.976, 947.212 739.985 C 951.184 740.007, 961.024 743.933, 963.623 746.532 C 968.408 751.317, 964.380 754.754, 949.238 758.807 C 941.354 760.917, 933.511 765.400, 934.606 767.171 C 935.702 768.945, 947.700 767.438, 955.806 764.508 C 968.783 759.816, 972 757.137, 972 751.016 C 972 742.821, 963.884 736.992, 951.500 736.292 C 947.539 736.069, 943.849 736.353, 943 736.948 M 989.589 739.118 C 984.262 740.368, 979.587 743.416, 978.145 746.580 C 977.487 748.026, 976.674 751.828, 976.339 755.028 C 975.770 760.479, 975.907 761.009, 978.520 763.431 C 982.278 766.914, 992.479 769.914, 1003.135 770.670 C 1010.373 771.184, 1012.349 771.001, 1014.452 769.623 C 1017.603 767.559, 1017.742 765.192, 1014.750 764.570 C 1013.513 764.313, 1007.775 763.901, 1002 763.655 C 995.754 763.389, 989.576 762.520, 986.750 761.510 C 982.001 759.812, 982 759.811, 982 755.129 C 982 749.817, 983.927 746.405, 987.851 744.770 C 989.308 744.162, 996.242 743.403, 1003.261 743.083 C 1010.374 742.758, 1016.128 742.061, 1016.261 741.508 C 1016.564 740.249, 1005.082 738.076, 998.500 738.147 C 995.750 738.177, 991.740 738.614, 989.589 739.118 M 962.077 772.087 C 956.350 773.211, 948.990 776.939, 947.319 779.562 C 946.225 781.280, 946.242 781.948, 947.422 783.562 C 948.814 785.467, 948.879 785.462, 951.198 783.284 C 952.495 782.065, 955.569 780.342, 958.028 779.456 C 963.765 777.388, 980.512 776.407, 984.358 777.913 C 986.864 778.895, 987.153 779.429, 986.712 782.266 C 986.435 784.045, 985.900 786.450, 985.524 787.612 C 984.584 790.509, 987.640 791.636, 990.186 789.332 C 991.749 787.917, 992.031 786.463, 991.791 781.058 C 991.508 774.671, 991.409 774.454, 988 772.752 C 984.149 770.828, 970.303 770.473, 962.077 772.087 M 571.750 775.740 C 575.188 775.936, 580.813 775.936, 584.250 775.740 C 587.688 775.545, 584.875 775.385, 578 775.385 C 571.125 775.385, 568.313 775.545, 571.750 775.740 M 615.750 775.740 C 619.188 775.936, 624.813 775.936, 628.250 775.740 C 631.688 775.545, 628.875 775.385, 622 775.385 C 615.125 775.385, 612.313 775.545, 615.750 775.740 M 529.473 1071.250 L 522.500 1078.500 529.750 1071.527 C 536.484 1065.050, 537.457 1064, 536.723 1064 C 536.571 1064, 533.308 1067.263, 529.473 1071.250 M 669.500 1071 C 673.320 1074.850, 676.671 1078, 676.946 1078 C 677.221 1078, 674.320 1074.850, 670.500 1071 C 666.680 1067.150, 663.329 1064, 663.054 1064 C 662.779 1064, 665.680 1067.150, 669.500 1071" stroke="none" fill="#a46161" fill-rule="evenodd"/><path d="M 402.971 417.750 L 396.500 424.500 403.250 418.029 C 406.962 414.470, 410 411.432, 410 411.279 C 410 410.543, 408.982 411.480, 402.971 417.750 M 796 417.500 C 799.543 421.075, 802.667 424, 802.942 424 C 803.217 424, 800.543 421.075, 797 417.500 C 793.457 413.925, 790.333 411, 790.058 411 C 789.783 411, 792.457 413.925, 796 417.500 M 221.552 526.821 L 215.604 533.500 220.877 528.500 C 225.215 524.387, 229.002 519.767, 227.785 520.071 C 227.628 520.111, 224.823 523.148, 221.552 526.821 M 972.789 521.500 C 973.373 522.600, 976.232 525.750, 979.145 528.500 L 984.440 533.500 978.521 527 C 975.266 523.425, 972.406 520.275, 972.166 520 C 971.926 519.725, 972.206 520.400, 972.789 521.500 M 524.250 523.735 C 526.862 523.941, 531.138 523.941, 533.750 523.735 C 536.362 523.529, 534.225 523.360, 529 523.360 C 523.775 523.360, 521.638 523.529, 524.250 523.735 M 666.250 523.735 C 668.862 523.941, 673.138 523.941, 675.750 523.735 C 678.362 523.529, 676.225 523.360, 671 523.360 C 665.775 523.360, 663.638 523.529, 666.250 523.735 M 496.728 524.722 C 498.503 524.943, 501.653 524.946, 503.728 524.730 C 505.802 524.513, 504.350 524.333, 500.500 524.328 C 496.650 524.324, 494.952 524.501, 496.728 524.722 M 695.728 524.722 C 697.503 524.943, 700.653 524.946, 702.728 524.730 C 704.802 524.513, 703.350 524.333, 699.500 524.328 C 695.650 524.324, 693.952 524.501, 695.728 524.722 M 523.750 559.732 C 526.087 559.943, 529.913 559.943, 532.250 559.732 C 534.587 559.522, 532.675 559.349, 528 559.349 C 523.325 559.349, 521.413 559.522, 523.750 559.732 M 667.750 559.732 C 670.087 559.943, 673.913 559.943, 676.250 559.732 C 678.587 559.522, 676.675 559.349, 672 559.349 C 667.325 559.349, 665.413 559.522, 667.750 559.732 M 494.250 560.728 C 496.313 560.944, 499.688 560.944, 501.750 560.728 C 503.813 560.513, 502.125 560.336, 498 560.336 C 493.875 560.336, 492.188 560.513, 494.250 560.728 M 698.250 560.728 C 700.313 560.944, 703.688 560.944, 705.750 560.728 C 707.813 560.513, 706.125 560.336, 702 560.336 C 697.875 560.336, 696.188 560.513, 698.250 560.728 M 464.728 561.722 C 466.503 561.943, 469.653 561.946, 471.728 561.730 C 473.802 561.513, 472.350 561.333, 468.500 561.328 C 464.650 561.324, 462.952 561.501, 464.728 561.722 M 727.728 561.722 C 729.503 561.943, 732.653 561.946, 734.728 561.730 C 736.802 561.513, 735.350 561.333, 731.500 561.328 C 727.650 561.324, 725.952 561.501, 727.728 561.722 M 451.971 707.750 L 445.500 714.500 452.250 708.029 C 458.520 702.018, 459.457 701, 458.721 701 C 458.568 701, 455.530 704.038, 451.971 707.750 M 747 707.500 C 750.543 711.075, 753.667 714, 753.942 714 C 754.217 714, 751.543 711.075, 748 707.500 C 744.457 703.925, 741.333 701, 741.058 701 C 740.783 701, 743.457 703.925, 747 707.500 M 594.750 775.737 C 597.638 775.939, 602.362 775.939, 605.250 775.737 C 608.138 775.535, 605.775 775.370, 600 775.370 C 594.225 775.370, 591.862 775.535, 594.750 775.737 M 494.047 850.283 C 493.817 854.152, 503.999 867.006, 507.285 866.996 C 507.953 866.994, 507.150 866.159, 505.500 865.139 C 501.564 862.708, 499.769 860.547, 496.662 854.500 C 495.249 851.750, 494.072 849.852, 494.047 850.283 M 703.018 854.961 C 700.720 859.869, 697.362 863.705, 693.500 865.836 C 692.400 866.443, 692.047 866.953, 692.715 866.970 C 694.974 867.026, 701.113 860.711, 703.631 855.741 C 705.008 853.024, 705.956 850.622, 705.737 850.403 C 705.518 850.185, 704.295 852.235, 703.018 854.961 M 589.250 855.746 C 595.163 855.923, 604.837 855.923, 610.750 855.746 C 616.663 855.569, 611.825 855.425, 600 855.425 C 588.175 855.425, 583.337 855.569, 589.250 855.746" stroke="none" fill="#040404" fill-rule="evenodd"/><path d="M 856.728 501.722 C 858.503 501.943, 861.653 501.946, 863.728 501.730 C 865.802 501.513, 864.350 501.333, 860.500 501.328 C 856.650 501.324, 854.952 501.501, 856.728 501.722 M 529.971 1071.750 L 523.500 1078.500 530.250 1072.029 C 536.520 1066.018, 537.457 1065, 536.721 1065 C 536.568 1065, 533.530 1068.037, 529.971 1071.750 M 669 1071.500 C 672.543 1075.075, 675.667 1078, 675.942 1078 C 676.217 1078, 673.543 1075.075, 670 1071.500 C 666.457 1067.925, 663.333 1065, 663.058 1065 C 662.783 1065, 665.457 1067.925, 669 1071.500" stroke="none" fill="#f8f7f7" fill-rule="evenodd"/></svg>