<svg xmlns="http://www.w3.org/2000/svg" width="1200" height="800" viewBox="0 0 1200 800" version="1.1"><path d="M 884.483 102.750 C 883.004 111.883, 878.287 124.331, 870.807 138.843 C 858.593 162.539, 856.634 165.515, 851.658 167.923 C 846.572 170.386, 843.213 170.483, 830.243 168.542 C 817.070 166.570, 799.043 165.182, 778 164.518 C 740.592 163.338, 737.524 162.767, 731.638 155.890 C 726.801 150.239, 725.869 146.107, 726.912 134.936 C 727.397 129.746, 727.698 125.396, 727.581 125.268 C 727.465 125.141, 719.299 122.554, 709.435 119.520 L 691.500 114.003 670.500 114.037 C 644.549 114.078, 638.603 115.077, 619.936 122.539 C 611.996 125.713, 604.375 128.310, 603 128.310 C 601.625 128.310, 594.004 125.713, 586.064 122.539 C 567.396 115.077, 561.451 114.077, 535.500 114.037 L 514.500 114.005 495 120 C 484.275 123.297, 474.724 125.996, 473.775 125.997 C 472.457 125.999, 472.151 126.649, 472.476 128.750 C 474.705 143.120, 473.718 149.633, 468.362 155.890 C 462.476 162.767, 459.408 163.338, 422 164.518 C 400.957 165.182, 382.930 166.570, 369.757 168.542 C 356.787 170.483, 353.428 170.386, 348.342 167.923 C 343.249 165.458, 341.064 162.086, 328.627 137.500 C 321.086 122.592, 317.554 113.252, 315.543 102.901 L 315.038 100.303 304.269 104 C 298.346 106.033, 287.875 110.046, 281 112.918 C 252.990 124.620, 254.369 124.257, 235.966 124.765 L 219.432 125.221 205.825 120.122 C 169.890 106.655, 163.876 105.492, 134.211 106.274 C 120.342 106.639, 114.783 107.204, 108.585 108.880 C 92.457 113.239, 79.371 121.733, 72.035 132.603 C 69.831 135.869, 68.882 138.697, 68.395 143.448 C 67.795 149.303, 67.984 150.297, 70.515 154.615 C 72.537 158.067, 73.420 161.142, 73.761 165.928 C 74.226 172.466, 74.202 172.540, 69.135 180.111 C 63.446 188.611, 61.039 196.487, 61.015 206.682 C 61.001 212.300, 61.251 213.039, 63.750 214.789 C 67.057 217.104, 78.646 221.791, 83.216 222.663 C 87.638 223.506, 93.061 226.302, 95.497 228.995 C 97.977 231.737, 98.961 245.337, 96.951 249.091 C 95.045 252.652, 82.569 269.308, 80.581 270.944 C 77.842 273.200, 65.758 290.941, 63.176 296.499 C 59.954 303.435, 58.857 308.866, 58.302 320.628 L 57.825 330.756 62.001 339.383 C 64.297 344.128, 66.942 348.570, 67.879 349.255 C 74.594 354.165, 76.046 365.004, 71.491 376.215 C 70.110 379.612, 68.136 383.316, 67.103 384.446 C 66.071 385.576, 64.209 388.525, 62.967 391 C 61.724 393.475, 58.744 398.200, 56.345 401.500 C 53.946 404.800, 49.849 410.425, 47.241 414 L 42.500 420.500 42.507 436.500 C 42.513 452.471, 42.519 452.512, 45.713 459.003 C 49.583 466.871, 56.709 474.138, 66.129 479.823 C 68.125 481.028, 71.612 484.025, 73.879 486.484 L 78 490.955 78 500.352 C 78 510.015, 77.300 513.003, 72.549 523.625 C 69.742 529.900, 69.361 530.648, 61.907 544.529 C 54.958 557.469, 53 564.313, 53 575.670 C 53 588.922, 56.077 594.697, 67.860 603.554 C 75.643 609.405, 79.732 613.648, 82.263 618.500 C 84.023 621.875, 84.360 624.375, 84.424 634.500 C 84.507 647.661, 84.769 646.893, 76.221 658.601 C 72.487 663.717, 63 681.568, 63 683.479 C 63 684.176, 62.107 686.764, 61.016 689.230 C 57.829 696.436, 56 707.322, 56 719.090 C 56 729.574, 56.148 730.345, 59.416 736.833 C 65.519 748.953, 76.188 755.934, 98.500 762.409 C 105.100 764.324, 113.182 766.853, 116.461 768.029 C 121.448 769.817, 124.156 770.111, 133.038 769.833 C 142.913 769.523, 143.964 769.290, 148.077 766.500 C 150.510 764.850, 152.950 763.274, 153.500 762.997 C 154.050 762.720, 159.381 759.233, 165.346 755.247 C 180.354 745.218, 185.192 743.853, 206.222 743.715 C 225.126 743.590, 230.346 744.658, 243.904 751.424 C 248.632 753.783, 255.425 756.872, 259 758.287 C 268.668 762.115, 292.511 768.822, 300.500 769.962 C 311.292 771.501, 334.246 771.250, 340.924 769.520 C 348.675 767.511, 359.555 762.470, 364.460 758.614 C 374.479 750.737, 381.454 749.053, 404.188 749.020 C 424.029 748.991, 431.894 751.161, 458.352 763.968 C 465.207 767.285, 471.058 770, 471.355 770 C 471.651 770, 475.180 771.539, 479.197 773.421 C 490 778.481, 498.076 780.713, 511.842 782.446 C 530.401 784.783, 532.499 784.608, 545.284 779.657 C 551.453 777.269, 559.200 774.467, 562.500 773.432 C 565.800 772.396, 569.400 770.998, 570.500 770.325 C 575.660 767.169, 584.441 766, 603 766 C 621.559 766, 630.340 767.169, 635.500 770.325 C 636.600 770.998, 640.200 772.396, 643.500 773.432 C 646.800 774.467, 654.547 777.269, 660.716 779.657 C 673.501 784.608, 675.599 784.783, 694.158 782.446 C 707.924 780.713, 716 778.481, 726.803 773.421 C 730.820 771.539, 734.349 770, 734.645 770 C 734.942 770, 740.793 767.285, 747.648 763.968 C 774.106 751.161, 781.971 748.991, 801.812 749.020 C 824.546 749.053, 831.521 750.737, 841.540 758.614 C 846.445 762.470, 857.325 767.511, 865.076 769.520 C 871.754 771.250, 894.708 771.501, 905.500 769.962 C 913.489 768.822, 937.332 762.115, 947 758.287 C 950.575 756.872, 957.368 753.783, 962.096 751.424 C 975.654 744.658, 980.874 743.590, 999.778 743.715 C 1020.808 743.853, 1025.646 745.218, 1040.654 755.247 C 1046.619 759.233, 1051.950 762.720, 1052.500 762.997 C 1053.050 763.274, 1055.490 764.850, 1057.923 766.500 C 1062.036 769.290, 1063.087 769.523, 1072.962 769.833 C 1081.844 770.111, 1084.552 769.817, 1089.539 768.029 C 1092.818 766.853, 1100.900 764.324, 1107.500 762.409 C 1129.812 755.934, 1140.481 748.953, 1146.584 736.833 C 1149.852 730.345, 1150 729.574, 1150 719.090 C 1150 707.322, 1148.171 696.436, 1144.984 689.230 C 1143.893 686.764, 1143 684.176, 1143 683.479 C 1143 681.568, 1133.513 663.717, 1129.779 658.601 C 1121.231 646.893, 1121.493 647.661, 1121.576 634.500 C 1121.640 624.375, 1121.977 621.875, 1123.737 618.500 C 1126.268 613.648, 1130.357 609.405, 1138.140 603.554 C 1149.923 594.697, 1153 588.922, 1153 575.670 C 1153 564.313, 1151.042 557.469, 1144.093 544.529 C 1136.639 530.648, 1136.258 529.900, 1133.451 523.625 C 1128.700 513.003, 1128 510.015, 1128 500.352 L 1128 490.955 1132.121 486.484 C 1134.388 484.025, 1137.875 481.028, 1139.871 479.823 C 1149.291 474.138, 1156.417 466.871, 1160.287 459.003 C 1163.481 452.512, 1163.487 452.471, 1163.493 436.500 L 1163.500 420.500 1158.759 414 C 1156.151 410.425, 1152.054 404.800, 1149.655 401.500 C 1147.256 398.200, 1144.276 393.475, 1143.033 391 C 1141.791 388.525, 1139.929 385.576, 1138.897 384.446 C 1137.864 383.316, 1135.890 379.612, 1134.509 376.215 C 1129.954 365.004, 1131.406 354.165, 1138.121 349.255 C 1139.058 348.570, 1141.703 344.128, 1143.999 339.383 L 1148.175 330.756 1147.698 320.628 C 1147.143 308.866, 1146.046 303.435, 1142.824 296.499 C 1140.242 290.941, 1128.158 273.200, 1125.419 270.944 C 1123.431 269.308, 1110.955 252.652, 1109.049 249.091 C 1107.039 245.337, 1108.023 231.737, 1110.503 228.995 C 1112.939 226.302, 1118.362 223.506, 1122.784 222.663 C 1127.354 221.791, 1138.943 217.104, 1142.250 214.789 C 1144.749 213.039, 1144.999 212.300, 1144.985 206.682 C 1144.961 196.487, 1142.554 188.611, 1136.865 180.111 C 1131.798 172.540, 1131.774 172.466, 1132.239 165.928 C 1132.580 161.142, 1133.463 158.067, 1135.485 154.615 C 1138.016 150.297, 1138.205 149.303, 1137.605 143.448 C 1137.118 138.697, 1136.169 135.869, 1133.965 132.603 C 1126.629 121.733, 1113.543 113.239, 1097.415 108.880 C 1091.217 107.204, 1085.658 106.639, 1071.789 106.274 C 1042.124 105.492, 1036.110 106.655, 1000.175 120.122 L 986.568 125.221 970.034 124.765 C 951.563 124.255, 953.162 124.681, 924 112.520 C 911.807 107.435, 888.060 99, 885.937 99 C 885.472 99, 884.817 100.688, 884.483 102.750" stroke="none" fill="#ffffff" fill-rule="evenodd"/><path d="M 366.585 12.587 C 358.261 14.442, 353.453 16.789, 345.500 22.877 C 332.287 32.992, 320.838 47.982, 316.476 60.874 C 314.281 67.360, 314.129 69.087, 314.544 82.708 C 315.308 107.805, 317.836 116.343, 333.068 145.276 C 345.929 169.706, 348.234 171.338, 366.089 168.657 C 383.666 166.018, 396.388 165.019, 425 164.033 C 442.607 163.426, 454.414 162.576, 457.820 161.671 C 463.768 160.090, 468.929 155.776, 471.596 150.157 C 473.905 145.290, 472.979 129.632, 469.664 117.500 C 468.090 111.743, 466.997 104.478, 466.631 97.339 C 465.642 78.104, 458.929 59.082, 447.970 44.463 C 438.071 31.259, 425.531 23.083, 404.381 16.043 C 389.745 11.171, 377.829 10.082, 366.585 12.587 M 807.107 12.655 C 792.070 15.791, 772.337 24.760, 762.887 32.753 C 746.216 46.853, 734.690 72.058, 733.352 97.339 C 732.988 104.230, 731.812 112.134, 730.278 118 C 726.987 130.593, 726.130 145.365, 728.413 150.175 C 731.071 155.777, 736.238 160.091, 742.180 161.671 C 745.586 162.576, 757.393 163.426, 775 164.033 C 803.612 165.019, 816.334 166.018, 833.911 168.657 C 851.766 171.338, 854.071 169.706, 866.932 145.276 C 877.811 124.613, 881.628 115.309, 883.307 105.366 C 884.001 101.261, 884.778 98.110, 885.034 98.364 C 885.290 98.618, 885.489 91.328, 885.477 82.163 C 885.456 67.462, 885.193 64.804, 883.244 59.585 C 877.361 43.832, 859.518 23.888, 844.450 16.224 C 835.192 11.514, 819.680 10.032, 807.107 12.655" stroke="none" fill="#040404" fill-rule="evenodd"/><path d="" stroke="none" fill="#fbfbfb" fill-rule="evenodd"/></svg>