<svg xmlns="http://www.w3.org/2000/svg" width="1200" height="1200" viewBox="0 0 1200 1200" version="1.1"><path d="M 595.959 211.361 C 595.662 211.666, 583.794 212.841, 569.587 213.974 C 555.380 215.106, 543.406 216.249, 542.977 216.514 C 542.549 216.779, 543.046 220.259, 544.082 224.248 C 545.118 228.236, 545.973 233.386, 545.983 235.691 C 545.992 237.996, 546.450 240.160, 547 240.500 C 548.098 241.179, 548.366 248.882, 547.381 251.449 C 546.327 254.195, 524.997 269.528, 512.440 276.566 C 500.294 283.374, 482.346 291.864, 471.500 295.932 C 464.037 298.731, 458.669 300.856, 453.500 303.057 C 451.300 303.993, 445.225 306.424, 440 308.459 C 434.775 310.494, 429.150 312.761, 427.500 313.496 C 420.823 316.471, 411.977 318.945, 405.914 319.533 C 400.607 320.048, 397.947 319.685, 390.500 317.429 C 385.550 315.930, 377.511 313.683, 372.635 312.437 C 362.999 309.974, 361.999 309.361, 360.500 305.005 L 359.500 302.099 350.884 311.799 C 337.781 326.552, 324.982 343.337, 314.893 359 C 304.734 374.769, 289.140 404.730, 280.453 425.167 C 271.661 445.851, 256.255 474.567, 240.035 500.500 C 235.219 508.200, 230.300 516.730, 229.104 519.456 C 227.909 522.182, 224.133 527.357, 220.715 530.956 C 216.147 535.766, 212.696 540.947, 207.694 550.505 C 203.950 557.658, 198.464 566.433, 195.501 570.005 C 185.852 581.641, 160.360 625.042, 150.280 646.996 C 148.385 651.123, 145.041 659, 142.848 664.500 C 137.232 678.589, 128.130 695.589, 110.721 724.500 C 94.132 752.049, 81.746 771.120, 72.190 783.827 L 65.929 792.153 71.215 791.505 C 74.122 791.149, 87.525 790.802, 101 790.732 C 126.713 790.601, 141.780 791.812, 155.038 795.078 C 159.184 796.099, 167.284 797.635, 173.038 798.492 C 185.099 800.287, 201.889 804.238, 209.396 807.047 C 214.249 808.863, 234.826 814.315, 262.500 821.118 C 269.100 822.741, 278.550 825.359, 283.500 826.936 C 288.450 828.514, 296.775 830.801, 302 832.018 C 319.492 836.093, 344.383 843.079, 378.500 853.489 C 384.550 855.335, 394.225 857.807, 400 858.981 C 421.723 863.400, 428.904 865.216, 443.500 869.980 C 457.814 874.653, 478.287 878.955, 486.611 879.039 C 488.750 879.061, 494.410 879.896, 499.189 880.895 C 503.968 881.894, 511.843 882.799, 516.689 882.906 C 524.052 883.069, 541.338 885.750, 546.181 887.481 C 546.906 887.741, 554.250 888.850, 562.500 889.947 C 570.750 891.044, 582.562 892.671, 588.750 893.563 C 599.125 895.058, 600.875 895.058, 611.250 893.563 C 617.437 892.671, 629.250 891.044, 637.500 889.947 C 645.750 888.850, 653.094 887.741, 653.819 887.481 C 658.662 885.750, 675.948 883.069, 683.311 882.906 C 688.157 882.799, 696.032 881.894, 700.811 880.895 C 705.590 879.896, 711.250 879.061, 713.389 879.039 C 721.713 878.955, 742.186 874.653, 756.500 869.980 C 771.096 865.216, 778.277 863.400, 800 858.981 C 805.775 857.807, 815.450 855.335, 821.500 853.489 C 855.617 843.079, 880.508 836.093, 898 832.018 C 903.225 830.801, 911.550 828.514, 916.500 826.936 C 921.450 825.359, 930.900 822.741, 937.500 821.118 C 965.174 814.315, 985.751 808.863, 990.604 807.047 C 998.111 804.238, 1014.901 800.287, 1026.962 798.492 C 1032.716 797.635, 1040.816 796.099, 1044.962 795.078 C 1058.220 791.812, 1073.287 790.601, 1099 790.732 C 1112.475 790.802, 1125.878 791.149, 1128.785 791.505 L 1134.071 792.153 1127.810 783.827 C 1118.254 771.120, 1105.868 752.049, 1089.279 724.500 C 1071.870 695.589, 1062.768 678.589, 1057.152 664.500 C 1054.959 659, 1051.615 651.123, 1049.720 646.996 C 1039.640 625.042, 1014.148 581.641, 1004.499 570.005 C 1001.536 566.433, 996.050 557.658, 992.306 550.505 C 987.304 540.947, 983.853 535.766, 979.285 530.956 C 975.867 527.357, 972.091 522.182, 970.896 519.456 C 969.700 516.730, 964.781 508.200, 959.965 500.500 C 943.745 474.567, 928.339 445.851, 919.547 425.167 C 910.860 404.730, 895.266 374.769, 885.107 359 C 875.018 343.337, 862.219 326.552, 849.116 311.799 L 840.500 302.099 839.500 305.005 C 838.001 309.361, 837.001 309.974, 827.365 312.437 C 822.489 313.683, 814.450 315.930, 809.500 317.429 C 802.053 319.685, 799.393 320.048, 794.086 319.533 C 788.023 318.945, 779.177 316.471, 772.500 313.496 C 770.850 312.761, 765.225 310.494, 760 308.459 C 754.775 306.424, 748.700 303.993, 746.500 303.057 C 741.331 300.856, 735.963 298.731, 728.500 295.932 C 717.654 291.864, 699.706 283.374, 687.560 276.566 C 675.003 269.528, 653.673 254.195, 652.619 251.449 C 651.634 248.882, 651.902 241.179, 653 240.500 C 653.550 240.160, 654.008 237.996, 654.017 235.691 C 654.027 233.386, 654.882 228.236, 655.918 224.248 C 656.954 220.259, 657.452 216.779, 657.024 216.515 C 656.597 216.251, 645.054 215.107, 631.374 213.972 C 617.693 212.838, 604.250 211.661, 601.500 211.358 C 598.750 211.055, 596.257 211.056, 595.959 211.361 M 507 518.975 C 497.287 519.727, 477.471 524.649, 466.175 529.115 C 453.647 534.068, 433.434 545.010, 426.278 550.713 C 422.608 553.638, 414.631 560.876, 408.552 566.798 C 393.501 581.462, 380.695 591.316, 370.233 596.283 C 362.001 600.191, 363.537 605, 373.017 605 C 385.738 605, 404.190 596.748, 418.736 584.555 C 435.996 570.086, 441.418 565.967, 447.014 563.067 C 472.933 549.636, 507.171 541.288, 521.521 544.901 C 524.864 545.743, 527.241 547.219, 529.748 550.012 C 538.072 559.284, 549.628 558.504, 554.875 548.316 C 556.441 545.274, 556.279 539.440, 554.534 536.065 C 552.576 532.280, 544.937 525.658, 539.716 523.220 C 534.701 520.878, 522.250 517.935, 518.303 518.158 C 516.761 518.246, 511.675 518.613, 507 518.975 M 670.500 519.880 C 666.650 520.841, 661.824 522.433, 659.775 523.416 C 654.931 525.741, 647.330 532.461, 645.466 536.065 C 641.419 543.891, 645.804 553.793, 654.334 556.090 C 659.643 557.519, 665.531 555.271, 670.252 550.012 C 672.759 547.219, 675.136 545.743, 678.479 544.901 C 692.829 541.288, 727.067 549.636, 752.986 563.067 C 758.582 565.967, 764.004 570.086, 781.264 584.555 C 795.810 596.748, 814.262 605, 826.983 605 C 836.463 605, 837.999 600.191, 829.767 596.283 C 819.305 591.316, 806.499 581.462, 791.448 566.798 C 775.856 551.609, 768.860 546.334, 754.274 538.772 C 737.408 530.028, 728.757 526.700, 712.232 522.597 C 694.697 518.244, 680.700 517.333, 670.500 519.880 M 277.821 626.395 C 269.584 628.613, 262.169 635.798, 260.104 643.562 C 259.281 646.658, 259.364 649.398, 260.453 655.092 C 262.465 665.604, 263.208 667.149, 269.653 674.219 C 290.048 696.589, 318.283 716.385, 343.114 725.723 C 349.902 728.275, 351.633 728.500, 364.500 728.500 C 378.085 728.500, 378.694 728.408, 385.047 725.397 C 397.206 719.636, 401.841 713.634, 404.039 700.806 C 404.998 695.205, 404.915 692.922, 403.528 686.825 C 401.057 675.959, 396.742 668.729, 386.920 659 C 376.908 649.082, 369.568 644.798, 352.710 639.030 C 339.271 634.432, 314.950 628, 311.003 628 C 309.490 628, 306.338 627.325, 304 626.500 C 298.819 624.672, 284.434 624.614, 277.821 626.395 M 896 626.439 C 894.075 627.214, 891.093 627.882, 889.373 627.924 C 880.182 628.148, 840.542 640.440, 828.746 646.725 C 819.611 651.592, 805.756 665.125, 801.314 673.519 C 796.468 682.677, 794.539 692.508, 795.961 700.806 C 798.159 713.634, 802.794 719.636, 814.953 725.397 C 821.306 728.408, 821.915 728.500, 835.500 728.500 C 848.367 728.500, 850.098 728.275, 856.886 725.723 C 881.717 716.385, 909.952 696.589, 930.347 674.219 C 936.787 667.154, 937.536 665.600, 939.538 655.139 C 941.355 645.641, 940.228 640.676, 934.872 634.592 C 928.725 627.609, 923.626 625.666, 910.534 625.321 C 902.772 625.116, 898.462 625.448, 896 626.439 M 581 713.136 C 558.571 714.505, 540.575 719.193, 529.486 726.553 C 524.290 730.002, 519 735.245, 519 736.947 C 519 737.383, 513.038 738.518, 505.750 739.468 C 482.453 742.506, 473.362 745.688, 465.662 753.500 C 456.090 763.211, 453.159 771.783, 452.300 792.570 C 451.627 808.896, 452.616 813.320, 458.768 821.500 C 466.076 831.217, 481.725 838.743, 502.566 842.563 C 514.333 844.720, 555.490 845.709, 566 844.087 C 570.125 843.450, 578.675 841.083, 585 838.826 C 591.325 836.568, 598.075 834.722, 600 834.722 C 601.925 834.722, 608.675 836.568, 615 838.826 C 621.325 841.083, 629.875 843.450, 634 844.087 C 644.510 845.709, 685.667 844.720, 697.434 842.563 C 718.275 838.743, 733.924 831.217, 741.232 821.500 C 747.384 813.320, 748.373 808.896, 747.700 792.570 C 746.841 771.783, 743.910 763.211, 734.338 753.500 C 726.649 745.699, 717.538 742.505, 694.358 739.483 C 682.402 737.924, 681.120 737.560, 680.158 735.447 C 678.717 732.285, 670.223 725.724, 663.376 722.485 C 646.963 714.720, 614.811 711.071, 581 713.136 M 590.022 1023.064 C 571.445 1035.071, 544.685 1057.375, 527.478 1075.194 C 508.356 1094.996, 498.590 1109.578, 488.095 1134 C 480.960 1150.601, 473.302 1177.345, 470.412 1195.750 L 469.744 1200 600 1200 L 730.256 1200 729.588 1195.750 C 725.419 1169.201, 714.511 1136.304, 702.732 1114.760 C 689.121 1089.865, 663.028 1062.535, 626.383 1034.788 C 610.433 1022.712, 604.230 1019, 600 1019 C 597.384 1019, 594.481 1020.182, 590.022 1023.064" stroke="none" fill="#ffffff" fill-rule="evenodd"/><path d="M 414.450 96.970 C 395.418 98.663, 386.070 101.764, 370.293 111.621 C 343.237 128.523, 337.206 134.814, 326.302 157.507 L 321.500 167.500 321.573 185.500 C 321.646 203.484, 321.650 203.516, 326.288 222 C 332.475 246.653, 334.707 252.874, 343.072 268.774 L 350.161 282.251 346.331 286.351 C 344.224 288.606, 342.273 290.687, 341.995 290.976 C 324.768 308.874, 299.896 342.558, 288.444 363.500 C 286.339 367.350, 282.613 372.975, 280.164 376 C 277.715 379.025, 275.056 383.056, 274.256 384.957 C 273.455 386.858, 271.061 391.484, 268.935 395.236 C 266.808 398.988, 263.905 405.757, 262.483 410.279 C 261.061 414.800, 257.502 422.775, 254.574 428 C 245.009 445.066, 242.680 449.371, 237.810 458.984 C 235.167 464.200, 232.262 470.725, 231.352 473.484 C 229.566 478.905, 218.643 496.599, 189.981 540.500 C 154.404 594.992, 137.077 625.853, 124.851 656.500 C 119.549 669.792, 111.631 684.640, 94.721 713 C 71.993 751.119, 54.132 777.932, 46.428 785.500 C 37.825 793.951, 37.204 798.060, 43.957 801.856 C 50.608 805.594, 62.189 807.070, 88.316 807.509 C 112.683 807.918, 140.073 810.420, 152.500 813.372 C 155.800 814.155, 161.875 815.313, 166 815.943 C 170.125 816.574, 174.543 817.311, 175.818 817.581 L 178.136 818.072 175.074 821.786 C 168.811 829.382, 150.246 853.703, 146.285 859.500 C 144.031 862.800, 137.532 869.765, 131.843 874.978 C 126.154 880.190, 116.275 889.865, 109.889 896.478 C 60.016 948.116, 28.389 999.881, 19.757 1044 C 18.950 1048.125, 16.871 1055.955, 15.136 1061.400 C 13.402 1066.846, 11.086 1076.971, 9.989 1083.900 C 8.893 1090.830, 7.099 1100.550, 6.004 1105.500 C 1.046 1127.908, 0.675 1132.082, 0.534 1167 C 0.460 1185.425, 0.686 1198.025, 1.037 1195 C 1.398 1191.880, 1.750 1190.798, 1.851 1192.500 C 1.948 1194.150, 2.299 1196.513, 2.630 1197.750 L 3.233 1200 235.979 1200 L 468.726 1200 469.957 1192.250 C 475.106 1159.852, 490.145 1120.843, 506.297 1097.989 C 522.097 1075.633, 554.917 1045.483, 588 1022.931 C 593.745 1019.015, 595.139 1018.500, 600 1018.500 C 604.861 1018.500, 606.255 1019.015, 612 1022.931 C 645.083 1045.483, 677.903 1075.633, 693.703 1097.989 C 709.855 1120.843, 724.894 1159.852, 730.043 1192.250 L 731.274 1200 964.092 1200 L 1196.909 1200 1197.521 1196.250 C 1198.610 1189.579, 1198.766 1189.414, 1198.884 1194.809 C 1199.040 1201.928, 1201 1200.605, 1201 1193.382 C 1201 1189.970, 1200.620 1188.117, 1200 1188.500 C 1199.397 1188.873, 1199 1187.530, 1199 1185.118 C 1199 1182.918, 1199.450 1180.840, 1200 1180.500 C 1200.614 1180.120, 1201 1171.970, 1201 1159.382 C 1201 1145.970, 1200.654 1139.096, 1200 1139.500 C 1199.411 1139.864, 1198.998 1138.760, 1198.996 1136.809 C 1198.991 1132.442, 1196.484 1116.743, 1193.996 1105.500 C 1192.901 1100.550, 1191.107 1090.830, 1190.011 1083.900 C 1188.914 1076.971, 1186.598 1066.846, 1184.864 1061.400 C 1183.129 1055.955, 1181.050 1048.125, 1180.243 1044 C 1171.611 999.881, 1139.984 948.116, 1090.111 896.478 C 1083.725 889.865, 1073.846 880.190, 1068.157 874.978 C 1062.468 869.765, 1055.969 862.800, 1053.715 859.500 C 1049.754 853.703, 1031.189 829.382, 1024.926 821.786 L 1021.864 818.072 1024.182 817.581 C 1025.457 817.311, 1029.875 816.574, 1034 815.943 C 1038.125 815.313, 1044.200 814.155, 1047.500 813.372 C 1059.927 810.420, 1087.317 807.918, 1111.684 807.509 C 1137.811 807.070, 1149.392 805.594, 1156.043 801.856 C 1162.796 798.060, 1162.175 793.951, 1153.572 785.500 C 1145.868 777.932, 1128.007 751.119, 1105.279 713 C 1088.369 684.640, 1080.451 669.792, 1075.149 656.500 C 1062.923 625.853, 1045.596 594.992, 1010.019 540.500 C 981.357 496.599, 970.434 478.905, 968.648 473.484 C 967.738 470.725, 964.833 464.200, 962.190 458.984 C 957.320 449.371, 954.991 445.066, 945.426 428 C 942.498 422.775, 938.939 414.800, 937.517 410.279 C 936.095 405.757, 933.192 398.988, 931.065 395.236 C 928.939 391.484, 926.545 386.858, 925.744 384.957 C 924.944 383.056, 922.285 379.025, 919.836 376 C 917.387 372.975, 913.661 367.350, 911.556 363.500 C 900.104 342.558, 875.232 308.874, 858.005 290.976 C 857.727 290.687, 855.776 288.606, 853.669 286.351 L 849.839 282.251 856.928 268.774 C 865.293 252.874, 867.525 246.653, 873.712 222 C 878.350 203.516, 878.354 203.484, 878.427 185.500 L 878.500 167.500 873.698 157.507 C 862.794 134.814, 856.763 128.523, 829.707 111.621 C 811.408 100.189, 799.053 96.955, 772.567 96.665 C 759.052 96.517, 756.779 96.746, 750.500 98.886 C 739.171 102.749, 729.681 107.624, 721.086 113.996 C 710.460 121.875, 706.632 125.821, 698.685 137.089 C 695.034 142.265, 688.607 151.225, 684.404 157 C 676.323 168.103, 670.590 179.064, 666.970 190.330 C 664.971 196.550, 664.570 197.109, 662.479 196.584 C 661.216 196.267, 652.380 195.337, 642.842 194.516 C 633.304 193.696, 619.763 192.513, 612.750 191.888 C 603.225 191.038, 596.775 191.038, 587.250 191.888 C 580.237 192.513, 566.696 193.696, 557.158 194.516 C 547.620 195.337, 538.784 196.267, 537.521 196.584 C 535.430 197.109, 535.029 196.550, 533.030 190.330 C 529.410 179.064, 523.677 168.103, 515.596 157 C 511.393 151.225, 504.966 142.265, 501.315 137.089 C 493.371 125.825, 489.539 121.874, 478.934 114.011 C 470.262 107.581, 462.024 103.295, 450.688 99.315 C 442.492 96.437, 429.726 95.611, 414.450 96.970 M 595.983 210.330 C 595.698 210.626, 588.723 211.371, 580.483 211.985 C 563.287 213.267, 542.834 215.832, 541.788 216.838 C 541.397 217.215, 541.952 220.893, 543.021 225.012 C 544.091 229.130, 544.973 234.386, 544.983 236.691 C 544.992 238.996, 545.450 241.160, 546 241.500 C 547.491 242.422, 547.207 249.259, 545.581 251.581 C 543.588 254.426, 524.512 268.267, 515.245 273.591 C 505.811 279.012, 483.866 289.732, 475 293.252 C 426.959 312.323, 414.956 316.936, 411.902 317.500 C 402.365 319.263, 396.214 318.543, 383.500 314.173 C 380.200 313.039, 374.672 311.575, 371.215 310.919 C 366.597 310.042, 364.412 309.068, 362.978 307.245 C 361.905 305.881, 361.270 304.371, 361.568 303.890 C 361.865 303.409, 361.708 302.301, 361.219 301.426 C 360.105 299.436, 355.424 304.081, 340.744 321.745 C 315.042 352.672, 299.754 378.913, 274.016 436.282 C 268.007 449.676, 250.948 480.685, 239.787 498.500 C 235.652 505.100, 231.069 512.877, 229.601 515.782 C 228.134 518.687, 224.136 524.116, 220.717 527.847 C 216.092 532.892, 212.707 538.160, 207.500 548.412 C 203.650 555.993, 199.559 563.164, 198.409 564.347 C 194.245 568.634, 173.207 603.199, 161.798 624.500 C 152.278 642.274, 148.729 649.765, 142.851 664.500 C 137.384 678.205, 128.240 695.387, 112.248 722 C 91.403 756.690, 73.996 782.971, 67.632 789.360 C 64.492 792.514, 67.317 793.123, 81.500 792.351 C 100.168 791.334, 123.914 791.604, 135.500 792.963 C 157.196 795.508, 191.343 802.500, 207.438 807.693 C 218.302 811.198, 238.506 816.552, 261.500 822.018 C 268.100 823.587, 276.875 826.009, 281 827.401 C 285.125 828.792, 294.350 831.331, 301.500 833.042 C 322.406 838.047, 341.882 843.533, 377.500 854.451 C 383.550 856.306, 390.075 858.105, 392 858.450 C 393.925 858.795, 397.300 859.494, 399.500 860.004 C 401.700 860.513, 408.900 862.091, 415.500 863.510 C 422.100 864.929, 434.250 868.285, 442.500 870.967 C 456.321 875.461, 473.053 878.934, 488 880.412 C 491.025 880.711, 497.027 881.641, 501.338 882.478 C 505.649 883.315, 512.624 884.006, 516.838 884.013 C 521.052 884.020, 528.775 884.935, 534 886.045 C 550.469 889.546, 559.346 890.997, 564.292 890.999 C 566.928 890.999, 572.328 891.636, 576.292 892.414 C 598.585 896.787, 601.415 896.787, 623.708 892.414 C 627.672 891.636, 633.072 890.999, 635.708 890.999 C 640.654 890.997, 649.531 889.546, 666 886.045 C 671.225 884.935, 678.948 884.020, 683.162 884.013 C 687.376 884.006, 694.351 883.315, 698.662 882.478 C 702.973 881.641, 708.975 880.711, 712 880.412 C 726.947 878.934, 743.679 875.461, 757.500 870.967 C 765.750 868.285, 777.900 864.929, 784.500 863.510 C 791.100 862.091, 798.300 860.513, 800.500 860.004 C 802.700 859.494, 806.075 858.795, 808 858.450 C 809.925 858.105, 816.450 856.306, 822.500 854.451 C 858.118 843.533, 877.594 838.047, 898.500 833.042 C 905.650 831.331, 914.875 828.792, 919 827.401 C 923.125 826.009, 931.900 823.587, 938.500 822.018 C 961.494 816.552, 981.698 811.198, 992.562 807.693 C 1008.657 802.500, 1042.804 795.508, 1064.500 792.963 C 1076.086 791.604, 1099.832 791.334, 1118.500 792.351 C 1132.683 793.123, 1135.508 792.514, 1132.368 789.360 C 1126.004 782.971, 1108.597 756.690, 1087.752 722 C 1071.760 695.387, 1062.616 678.205, 1057.149 664.500 C 1051.271 649.765, 1047.722 642.274, 1038.202 624.500 C 1026.793 603.199, 1005.755 568.634, 1001.591 564.347 C 1000.441 563.164, 996.350 555.993, 992.500 548.412 C 987.293 538.160, 983.908 532.892, 979.283 527.847 C 975.864 524.116, 971.866 518.687, 970.399 515.782 C 968.931 512.877, 964.348 505.100, 960.213 498.500 C 949.052 480.685, 931.993 449.676, 925.984 436.282 C 900.246 378.913, 884.958 352.672, 859.256 321.745 C 844.576 304.081, 839.895 299.436, 838.781 301.426 C 838.292 302.301, 838.135 303.409, 838.432 303.890 C 838.730 304.371, 838.095 305.881, 837.022 307.245 C 835.588 309.068, 833.403 310.042, 828.785 310.919 C 825.328 311.575, 819.800 313.039, 816.500 314.173 C 803.786 318.543, 797.635 319.263, 788.098 317.500 C 785.044 316.936, 773.041 312.323, 725 293.252 C 716.134 289.732, 694.189 279.012, 684.755 273.591 C 675.488 268.267, 656.412 254.426, 654.419 251.581 C 652.793 249.259, 652.509 242.422, 654 241.500 C 654.550 241.160, 655.008 238.996, 655.017 236.691 C 655.027 234.386, 655.909 229.130, 656.979 225.012 C 658.048 220.893, 658.603 217.213, 658.212 216.833 C 657.259 215.910, 636.606 213.267, 620.500 212.007 C 613.350 211.447, 605.025 210.720, 602 210.391 C 598.975 210.062, 596.267 210.034, 595.983 210.330 M 507 520.046 C 498.068 520.743, 480.325 525.101, 468.500 529.503 C 460.065 532.644, 439.242 543.049, 433.533 546.977 C 427.293 551.271, 421.766 556.062, 407.161 569.840 C 394.082 582.178, 376.089 595.809, 370.382 597.701 C 366.635 598.944, 365.826 602.746, 369.185 603.335 C 377.217 604.743, 385.587 602.720, 399.500 596.008 C 405.282 593.218, 412.076 588.349, 424 578.448 C 440.944 564.379, 449.330 559.382, 467.700 552.408 C 486.726 545.186, 513.607 541.081, 522.607 544.023 C 524.748 544.723, 528.830 547.417, 531.678 550.009 C 534.581 552.651, 538.275 555.005, 540.086 555.367 C 544.355 556.221, 549.787 553.531, 552.737 549.102 C 556.937 542.796, 555.313 537.105, 547.284 529.990 C 537.639 521.444, 525.979 518.566, 507 520.046 M 671.500 520.974 C 661.896 523.306, 658.290 525.035, 652.716 529.983 C 644.685 537.112, 643.064 542.797, 647.263 549.102 C 650.213 553.531, 655.645 556.221, 659.914 555.367 C 661.725 555.005, 665.419 552.651, 668.322 550.009 C 671.170 547.417, 675.252 544.723, 677.393 544.023 C 686.393 541.081, 713.274 545.186, 732.300 552.408 C 750.670 559.382, 759.056 564.379, 776 578.448 C 787.924 588.349, 794.718 593.218, 800.500 596.008 C 814.413 602.720, 822.783 604.743, 830.815 603.335 C 834.174 602.746, 833.365 598.944, 829.618 597.701 C 823.911 595.809, 805.918 582.178, 792.839 569.840 C 771.033 549.269, 768.005 547.004, 750.427 538.119 C 721.101 523.295, 689.878 516.513, 671.500 520.974 M 581 714.137 C 555.039 715.907, 536.818 721.373, 526.120 730.600 C 521.603 734.497, 519 739.150, 519 743.330 C 519 746.448, 524.266 758.033, 526.648 760.155 C 530.440 763.533, 542.813 769.076, 552.500 771.735 L 562.500 774.480 600 774.480 L 637.500 774.480 647.500 771.735 C 657.187 769.076, 669.560 763.533, 673.352 760.155 C 675.734 758.033, 681 746.448, 681 743.330 C 681 739.150, 678.397 734.497, 673.880 730.600 C 662.740 720.991, 645.192 715.950, 616.170 714.019 C 599.387 712.903, 599.093 712.904, 581 714.137 M 549.621 798.084 C 543.598 802.821, 548.660 809.856, 559.930 812.411 C 568.641 814.385, 591.474 817, 600 817 C 608.526 817, 631.359 814.385, 640.070 812.411 C 651.498 809.821, 656.505 802.521, 650 797.936 C 647.904 796.458, 646.451 796.301, 641 796.965 C 625.322 798.875, 600.297 800.254, 591.772 799.678 C 574.039 798.480, 556.487 796.993, 554.371 796.509 C 553.116 796.222, 551.164 796.870, 549.621 798.084 M 0.423 1160.500 C 0.424 1172.050, 0.570 1176.638, 0.747 1170.696 C 0.924 1164.753, 0.923 1155.303, 0.745 1149.696 C 0.567 1144.088, 0.422 1148.950, 0.423 1160.500" stroke="none" fill="#000000" fill-rule="evenodd"/><path d="M 409.971 565.750 L 403.500 572.500 410.250 566.029 C 416.520 560.018, 417.457 559, 416.721 559 C 416.568 559, 413.530 562.038, 409.971 565.750 M 789 565.500 C 792.543 569.075, 795.667 572, 795.942 572 C 796.217 572, 793.543 569.075, 790 565.500 C 786.457 561.925, 783.333 559, 783.058 559 C 782.783 559, 785.457 561.925, 789 565.500 M 284.500 625.968 C 276.183 626.769, 270.710 629.365, 265.741 634.865 C 260.554 640.607, 259.379 645.309, 260.818 654.566 C 261.457 658.677, 262.929 663.943, 264.090 666.270 C 267.681 673.466, 290.652 694.833, 305.224 704.530 C 335.858 724.918, 355.674 731.676, 374.184 728.048 C 392.506 724.458, 402.582 714.216, 403.762 697.984 C 404.775 684.044, 399.534 672.539, 386 658.992 C 376.423 649.406, 371.186 646.294, 354.173 640.078 C 342.744 635.903, 313.137 628.009, 308.828 627.989 C 307.548 627.983, 304.291 627.308, 301.591 626.489 C 296.416 624.919, 295.630 624.895, 284.500 625.968 M 898 626.543 C 895.525 627.328, 892.452 627.976, 891.172 627.985 C 886.846 628.013, 857.235 635.910, 845.827 640.078 C 828.814 646.294, 823.577 649.406, 814 658.992 C 800.466 672.539, 795.225 684.044, 796.238 697.984 C 797.418 714.216, 807.494 724.458, 825.816 728.048 C 844.326 731.676, 864.142 724.918, 894.776 704.530 C 909.348 694.833, 932.319 673.466, 935.910 666.270 C 939.041 659.995, 940.662 648.153, 939.103 642.949 C 937.458 637.458, 931.086 630.703, 925.227 628.238 C 918.796 625.532, 904.079 624.616, 898 626.543 M 571.287 775.740 C 574.469 775.939, 579.419 775.937, 582.287 775.736 C 585.154 775.535, 582.550 775.372, 576.500 775.374 C 570.450 775.376, 568.104 775.541, 571.287 775.740 M 618.287 775.740 C 621.469 775.939, 626.419 775.937, 629.287 775.736 C 632.154 775.535, 629.550 775.372, 623.500 775.374 C 617.450 775.376, 615.104 775.541, 618.287 775.740 M 594.250 817.739 C 597.413 817.937, 602.587 817.937, 605.750 817.739 C 608.913 817.541, 606.325 817.378, 600 817.378 C 593.675 817.378, 591.087 817.541, 594.250 817.739" stroke="none" fill="#cd6666" fill-rule="evenodd"/><path d="M 221.621 526.589 C 218.388 530.135, 216.432 532.772, 217.273 532.449 C 219.139 531.732, 229.373 519.710, 227.809 520.071 C 227.639 520.111, 224.855 523.044, 221.621 526.589 M 972.525 521 C 974.252 524.061, 981.250 531.882, 982.791 532.473 C 983.668 532.810, 981.734 530.254, 978.494 526.793 C 975.253 523.332, 972.395 520.275, 972.141 520 C 971.887 519.725, 972.060 520.175, 972.525 521 M 413.971 562.750 L 407.500 569.500 414.250 563.029 C 420.520 557.018, 421.457 556, 420.721 556 C 420.568 556, 417.530 559.038, 413.971 562.750 M 785 562.500 C 788.543 566.075, 791.667 569, 791.942 569 C 792.217 569, 789.543 566.075, 786 562.500 C 782.457 558.925, 779.333 556, 779.058 556 C 778.783 556, 781.457 558.925, 785 562.500 M 593.250 775.742 C 596.962 775.934, 603.038 775.934, 606.750 775.742 C 610.462 775.549, 607.425 775.392, 600 775.392 C 592.575 775.392, 589.538 775.549, 593.250 775.742" stroke="none" fill="#040404" fill-rule="evenodd"/><path d="M 221.049 529.328 L 214.599 536.500 220.373 531 C 225.106 526.492, 229.063 521.729, 227.785 522.078 C 227.628 522.121, 224.597 525.383, 221.049 529.328 M 972.791 523.500 C 973.375 524.600, 976.460 527.975, 979.648 531 L 985.443 536.500 979.016 529.500 C 975.481 525.650, 972.395 522.275, 972.159 522 C 971.923 521.725, 972.207 522.400, 972.791 523.500 M 504 739.586 C 482.421 742.621, 472.978 746.048, 465.652 753.500 C 456.084 763.233, 453.158 771.794, 452.300 792.570 C 451.627 808.896, 452.616 813.320, 458.768 821.500 C 466.076 831.217, 481.725 838.743, 502.566 842.563 C 514.333 844.720, 555.490 845.709, 566 844.087 C 570.125 843.450, 578.675 841.083, 585 838.826 C 591.325 836.568, 598.075 834.722, 600 834.722 C 601.925 834.722, 608.675 836.568, 615 838.826 C 621.325 841.083, 629.875 843.450, 634 844.087 C 644.510 845.709, 685.667 844.720, 697.434 842.563 C 718.275 838.743, 733.924 831.217, 741.232 821.500 C 747.384 813.320, 748.373 808.896, 747.700 792.570 C 746.841 771.783, 743.910 763.211, 734.338 753.500 C 730.178 749.280, 721.258 744.336, 715.146 742.864 C 711.601 742.011, 684.713 738, 682.534 738 C 681.871 738, 681.594 739.541, 681.824 741.953 C 682.109 744.941, 681.332 747.736, 678.639 753.411 C 675.484 760.057, 674.471 761.264, 669.788 763.952 C 662.298 768.253, 653.038 771.553, 641.767 773.939 C 633.099 775.775, 628.534 776, 600 776 C 571.466 776, 566.901 775.775, 558.233 773.939 C 546.962 771.553, 537.702 768.253, 530.212 763.952 C 525.529 761.264, 524.516 760.057, 521.361 753.411 C 518.668 747.736, 517.891 744.941, 518.176 741.953 C 518.616 737.336, 519.248 737.442, 504 739.586 M 550.315 795.983 C 549.114 796.480, 547.651 797.783, 547.065 798.878 C 543.729 805.112, 548.754 810.958, 559.500 813.345 C 568.706 815.390, 591.416 818, 600 818 C 608.584 818, 631.294 815.390, 640.500 813.345 C 651.885 810.816, 657.063 804.004, 652.182 797.976 C 650.008 795.292, 649.192 795.260, 629.500 797.082 C 621.250 797.845, 607.975 798.470, 600 798.470 C 586.990 798.470, 559.666 796.706, 554.500 795.533 C 553.400 795.283, 551.517 795.485, 550.315 795.983 M 530.483 1071.250 L 519.500 1082.500 530.750 1071.517 C 541.199 1061.316, 542.454 1060, 541.733 1060 C 541.586 1060, 536.524 1065.063, 530.483 1071.250 M 668.500 1071 C 674.531 1077.050, 679.691 1082, 679.966 1082 C 680.241 1082, 675.531 1077.050, 669.500 1071 C 663.469 1064.950, 658.309 1060, 658.034 1060 C 657.759 1060, 662.469 1064.950, 668.500 1071" stroke="none" fill="#f7f2f2" fill-rule="evenodd"/></svg>